<?xml version="1.0" standalone="no"?>
<!DOCTYPE svg PUBLIC "-//W3C//DTD SVG 20010904//EN"
 "http://www.w3.org/TR/2001/REC-SVG-20010904/DTD/svg10.dtd">
<svg version="1.0" xmlns="http://www.w3.org/2000/svg"
 width="1280.000000pt" height="1040.000000pt" viewBox="0 0 1280.000000 1040.000000"
 preserveAspectRatio="xMidYMid meet">
<metadata>
Created by potrace 1.15, written by Peter Selinger 2001-2017
</metadata>
<g transform="translate(0.000000,1040.000000) scale(0.100000,-0.100000)"
fill="#ffffff" stroke="none">
<path d="M4830 9238 l0 -957 -1107 -4 c-1172 -4 -1160 -4 -1398 -52 -389 -79
-772 -260 -1085 -512 -116 -93 -289 -267 -386 -389 -485 -607 -691 -1410 -563
-2194 47 -283 130 -540 260 -800 140 -280 308 -512 533 -736 231 -230 439
-380 720 -519 93 -47 172 -83 174 -80 3 3 -15 26 -39 52 -25 27 -59 68 -76 93
-64 95 -195 352 -229 451 -48 144 -104 359 -107 413 -1 24 -5 42 -8 40 -9 -5
-19 78 -13 107 5 19 4 21 -6 9 -9 -12 -10 -6 -6 28 4 27 1 42 -5 42 -8 0 -9
16 -5 48 3 29 2 39 -3 27 -5 -12 -6 20 -3 78 2 53 1 97 -4 97 -12 0 2 279 21
420 60 433 252 804 541 1046 197 164 426 265 734 321 84 15 195 17 985 21 490
2 919 0 953 -3 42 -4 70 -13 82 -25 10 -10 21 -16 24 -12 3 3 7 3 8 1 0 -2 4
-410 7 -906 l6 -902 95 89 c52 48 98 86 102 84 4 -2 9 0 12 4 3 5 47 30 98 55
l93 47 883 883 c485 486 884 882 885 880 2 -1 97 92 212 207 116 116 207 210
203 210 -4 0 21 26 54 58 62 59 99 113 119 173 7 19 21 46 31 62 11 15 16 27
12 27 -3 0 12 20 35 45 22 24 41 48 41 52 0 7 -1404 1411 -2477 2478 l-403
400 0 -957z m-3363 -4810 c-3 -7 -5 -2 -5 12 0 14 2 19 5 13 2 -7 2 -19 0 -25z"/>
<path d="M10662 7753 c96 -100 248 -371 310 -553 57 -166 115 -401 145 -580
31 -189 43 -580 24 -751 -96 -841 -572 -1351 -1326 -1419 -55 -5 -531 -9
-1057 -10 l-958 0 -2 528 -3 527 -5 -515 c-5 -481 -6 -455 -9 410 -3 509 -5
933 -4 943 0 9 -3 17 -6 17 -3 0 -652 -646 -1441 -1435 l-1435 -1435 55 -57
c30 -32 107 -111 170 -175 63 -65 111 -118 106 -118 -17 0 85 -104 1193 -1213
1074 -1076 1263 -1262 1273 -1252 2 3 20 -11 38 -30 19 -19 37 -35 41 -35 15
0 20 151 27 820 7 603 10 701 24 742 29 85 91 142 189 174 50 17 129 18 1064
24 877 6 1025 9 1125 24 441 65 819 225 1165 492 101 78 91 69 210 184 526
508 797 1214 792 2062 -1 119 -5 214 -9 212 -5 -3 -8 23 -8 57 0 118 -48 392
-100 575 -133 459 -359 848 -695 1193 -233 239 -447 396 -750 553 -93 48 -174
88 -180 88 -5 0 11 -21 37 -47z m-5082 -4968 c190 -190 343 -345 340 -345 -3
0 -160 155 -350 345 -190 190 -343 345 -340 345 3 0 160 -155 350 -345z"/>
</g>
</svg>
