<?xml version="1.0" standalone="no"?>
<!DOCTYPE svg PUBLIC "-//W3C//DTD SVG 20010904//EN"
 "http://www.w3.org/TR/2001/REC-SVG-20010904/DTD/svg10.dtd">
<svg version="1.0" xmlns="http://www.w3.org/2000/svg"
 width="1280.000000pt" height="1212.000000pt" viewBox="0 0 1280.000000 1212.000000"
 preserveAspectRatio="xMidYMid meet">
<metadata>
Created by potrace 1.15, written by Peter Selinger 2001-2017
</metadata>
<defs>
<linearGradient id="Gradient2" x1="0" x2="1" y1="1" y2="1">
        <stop offset="30%" stop-color="#dfdfdf"/>
        <stop offset="100%" stop-color="#295c89"/>
      </linearGradient>
</defs>
<g transform="translate(0.000000,1212.000000) scale(0.100000,-0.100000)"
fill="url(#Gradient2)" stroke="black" stroke-width="20%">
<path d="M5960 12105 c-30 -9 -75 -27 -100 -42 -29 -16 -1082 -1062 -2913
-2892 -2783 -2781 -2869 -2868 -2905 -2940 -35 -71 -37 -80 -37 -171 0 -91 2
-100 37 -171 36 -72 122 -158 2910 -2945 2495 -2493 2880 -2875 2929 -2898
208 -99 432 -24 496 167 16 48 18 126 21 999 l3 948 3029 0 c2214 0 3043 3
3082 11 126 27 210 89 257 188 l26 56 -4 2710 c-2 1491 -6 3133 -10 3650 l-7
940 -22 45 c-12 25 -36 62 -52 82 -36 44 -133 94 -209 108 -35 7 -1091 10
-3071 10 l-3018 0 -7 173 c-4 95 -6 519 -4 942 4 858 6 834 -64 927 -70 93
-235 140 -367 103z"/>
</g>
</svg>
