<?xml version="1.0" standalone="no"?>
<!DOCTYPE svg PUBLIC "-//W3C//DTD SVG 20010904//EN"
 "http://www.w3.org/TR/2001/REC-SVG-20010904/DTD/svg10.dtd">
<svg version="1.0" xmlns="http://www.w3.org/2000/svg"
 width="1280.000000pt" height="640.000000pt" viewBox="0 0 1280.000000 640.000000"
 preserveAspectRatio="xMidYMid meet">
<metadata>
Created by potrace 1.15, written by Peter Selinger 2001-2017
</metadata>
<g transform="translate(0.000000,640.000000) scale(0.100000,-0.100000)"
fill="#1b1b1b" stroke="none">
<path d="M0 3200 l0 -850 855 0 855 0 0 850 0 850 -855 0 -855 0 0 -850z"/>
<path d="M1850 3200 l0 -850 855 0 855 0 0 850 0 850 -855 0 -855 0 0 -850z"/>
<path d="M3690 3200 l0 -850 855 0 855 0 0 850 0 850 -855 0 -855 0 0 -850z"/>
<path d="M5540 3200 l0 -850 855 0 855 0 0 850 0 850 -855 0 -855 0 0 -850z"/>
<path d="M7380 3200 l0 -850 855 0 855 0 0 850 0 850 -855 0 -855 0 0 -850z"/>
<path d="M9230 3200 l0 -850 855 0 855 0 0 850 0 850 -855 0 -855 0 0 -850z"/>
<path d="M11090 3200 l0 -850 855 0 855 0 0 850 0 850 -855 0 -855 0 0 -850z"/>
</g>
</svg>
