<?xml version="1.0" standalone="no"?>
<!DOCTYPE svg PUBLIC "-//W3C//DTD SVG 20010904//EN"
 "http://www.w3.org/TR/2001/REC-SVG-20010904/DTD/svg10.dtd">
<svg version="1.0" xmlns="http://www.w3.org/2000/svg"
 width="1280.000000pt" height="1280.000000pt" viewBox="0 0 1280.000000 1280.000000"
 preserveAspectRatio="xMidYMid meet">
<g transform="translate(0.000000,1280.000000) scale(0.100000,-0.100000)"
fill="#91ddff" stroke="none">
<path d="M0 12743 c0 -54 2 -59 33 -80 41 -28 49 -28 73 -2 38 42 48 41 105
-8 62 -53 104 -73 154 -73 32 0 35 2 35 29 0 75 24 79 45 9 23 -77 20 -105
-14 -134 -34 -28 -56 -80 -66 -149 -4 -28 -9 -58 -11 -67 -7 -25 -73 -33 -119
-14 -54 23 -65 21 -65 -13 0 -17 -4 -32 -9 -35 -11 -7 -64 61 -56 73 3 6 31
17 61 26 80 23 132 61 176 129 59 92 52 106 -51 106 -78 0 -139 -23 -200 -75
-29 -25 -61 -45 -72 -45 -19 0 -19 -17 -19 -695 0 -684 0 -694 20 -705 25 -14
25 -45 0 -95 -18 -35 -20 -59 -20 -206 l0 -167 58 -7 c64 -7 76 -12 84 -36 4
-9 21 -19 39 -23 43 -8 80 17 92 65 l9 34 17 -23 c90 -126 150 -177 223 -189
33 -5 67 -27 57 -37 -2 -2 -31 1 -65 6 -51 9 -72 7 -135 -10 l-74 -21 -45 26
c-25 15 -51 33 -58 40 -7 7 -21 13 -30 13 -23 0 -72 -57 -72 -83 0 -11 -9 -31
-20 -42 -17 -18 -21 -38 -23 -106 -3 -72 -7 -90 -30 -126 -22 -35 -27 -54 -27
-105 1 -62 1 -63 36 -80 34 -16 38 -16 68 3 17 10 38 19 46 19 8 0 26 9 40 20
14 11 32 20 41 20 15 0 46 25 160 133 42 39 56 47 88 47 47 0 62 -16 68 -74
l5 -45 -38 -6 c-63 -10 -64 -12 -64 -56 0 -57 39 -94 101 -95 84 0 159 -15
177 -34 9 -10 31 -22 47 -26 17 -4 36 -12 44 -18 7 -6 32 -20 55 -31 47 -23
58 -57 30 -99 -21 -33 -51 -33 -94 -1 -24 17 -47 25 -77 25 -42 0 -42 0 -74
-64 -18 -35 -49 -83 -70 -106 -22 -24 -39 -46 -39 -51 0 -17 46 -76 75 -94 16
-11 39 -39 50 -63 13 -27 28 -45 43 -49 22 -5 23 -8 17 -72 -10 -107 -15 -131
-29 -131 -16 0 -26 22 -26 54 0 29 -54 137 -81 162 -11 10 -46 33 -77 49 l-57
30 -6 57 c-4 35 -14 67 -28 84 -18 22 -20 35 -15 75 6 45 5 48 -24 63 -17 9
-45 34 -63 55 -44 55 -79 68 -127 48 -37 -16 -92 -30 -165 -42 l-37 -6 0 -114
c0 -90 3 -117 16 -129 19 -20 24 -20 72 -1 36 15 42 15 93 -5 30 -12 62 -29
71 -38 9 -9 33 -28 53 -42 20 -14 50 -36 66 -49 23 -18 38 -22 64 -18 30 5 35
3 35 -15 0 -18 -4 -19 -35 -14 -27 5 -37 3 -41 -9 -4 -9 -19 -15 -39 -15 -25
0 -43 -10 -75 -41 -23 -22 -57 -47 -76 -55 -19 -8 -34 -18 -34 -22 0 -19 -99
-72 -134 -72 l-36 0 0 -53 0 -52 63 -22 c34 -13 89 -26 122 -29 40 -4 68 -14
83 -28 13 -11 42 -30 65 -41 32 -15 43 -27 47 -50 5 -27 9 -30 45 -30 38 0 40
-1 37 -30 -6 -56 -59 -69 -107 -25 -20 18 -105 33 -122 21 -5 -3 -22 -32 -38
-63 -16 -31 -46 -76 -67 -99 -21 -23 -38 -49 -38 -58 1 -20 49 -75 73 -84 9
-4 17 -16 17 -27 0 -29 26 -26 94 11 32 17 76 36 98 41 27 6 55 23 85 53 48
48 63 54 83 30 7 -8 29 -19 50 -25 21 -6 41 -17 44 -25 8 -23 45 -18 78 10 16
14 42 25 58 25 37 0 75 15 102 40 18 17 20 23 10 45 -7 14 -12 35 -12 46 0 22
44 68 103 105 25 17 40 34 44 55 4 20 14 34 30 40 41 15 53 11 53 -19 0 -43
27 -75 57 -67 14 3 31 1 38 -5 22 -19 62 5 70 42 13 57 45 92 45 48 0 -27 16
-25 25 3 7 20 8 19 12 -11 4 -28 7 -31 19 -21 8 6 14 20 14 30 0 11 5 19 10
19 6 0 10 -11 10 -25 0 -14 5 -25 10 -25 6 0 10 7 10 16 0 19 37 54 57 54 22
0 26 -26 8 -54 l-17 -26 31 0 c18 0 41 9 53 20 19 17 19 20 5 20 -10 0 -17 8
-17 19 0 11 -14 29 -30 41 -22 15 -30 30 -30 51 0 35 7 36 51 6 72 -49 161
-69 96 -22 l-22 17 22 -7 c14 -4 23 -2 23 4 0 15 -39 34 -56 27 -8 -3 -27 -1
-42 5 -24 10 -72 18 -112 21 -8 0 -22 7 -32 15 -22 20 -96 24 -113 7 -7 -8
-26 -14 -41 -14 -22 0 -24 2 -15 14 10 12 8 18 -12 31 -13 8 -31 13 -39 10 -9
-4 -23 1 -32 10 -19 19 -142 23 -160 5 -17 -17 -47 -11 -67 13 -24 28 -23 38
2 82 12 19 29 61 38 93 16 53 20 57 46 55 15 -1 38 -11 50 -23 12 -11 27 -20
34 -20 6 0 23 -12 36 -27 13 -16 25 -23 25 -18 0 6 19 32 43 59 34 37 42 53
39 75 -5 35 13 48 36 28 12 -11 22 -13 35 -6 10 6 23 8 30 6 7 -2 19 -1 28 4
9 5 33 3 55 -2 46 -13 175 5 214 30 14 8 41 23 61 32 31 15 36 21 32 43 -6 31
20 37 36 9 17 -29 12 1 -5 36 -13 27 -14 37 -4 56 10 19 9 27 -5 49 -10 14
-21 26 -25 26 -5 0 -13 14 -19 30 -5 17 -14 30 -19 30 -6 0 -35 31 -66 69 -63
77 -74 123 -36 161 18 18 33 20 160 20 l140 0 30 42 c16 22 30 46 30 53 0 6
12 22 26 36 26 24 26 25 22 159 l-3 135 -32 33 c-29 30 -36 32 -95 32 -41 0
-71 -5 -84 -15 -10 -8 -29 -15 -40 -15 -25 0 -112 36 -134 56 -21 19 -107 83
-157 118 -49 33 -66 30 -93 -16 -10 -18 -32 -39 -49 -46 -27 -12 -33 -10 -77
18 -26 16 -58 30 -71 30 -28 0 -40 27 -45 97 l-3 48 50 3 c89 4 92 6 100 62 6
44 13 55 58 95 29 25 67 50 87 56 19 6 42 17 50 24 8 6 29 17 47 24 17 7 41
23 54 37 21 23 22 25 5 43 -10 11 -32 23 -50 27 -17 3 -39 12 -50 19 -11 8
-32 11 -52 8 l-34 -6 0 89 c0 79 3 96 30 149 50 98 79 142 126 191 25 25 59
73 76 105 37 70 60 76 85 24 18 -37 45 -45 83 -25 15 8 17 6 13 -9 -6 -23 10
-34 37 -26 15 5 20 15 20 39 0 26 9 40 43 70 26 23 49 35 60 32 17 -4 17 -3 4
12 -15 18 -47 132 -47 170 0 11 -4 24 -10 27 -15 9 -12 41 5 55 10 8 13 21 8
38 -4 17 -1 29 9 36 8 6 20 28 27 48 18 54 37 66 62 40 25 -27 27 -27 53 1 16
17 38 26 76 30 29 4 57 11 60 18 4 6 13 9 21 8 8 -2 31 5 52 14 30 13 37 22
38 44 l1 28 9 -29 c5 -20 4 -34 -3 -44 -9 -10 -9 -15 1 -22 10 -5 10 -9 2 -15
-9 -5 -9 -10 0 -21 10 -12 6 -13 -21 -8 l-32 7 18 -28 c18 -27 18 -28 -9 -51
-15 -13 -27 -27 -27 -32 0 -15 -90 -112 -104 -112 -7 0 -21 -9 -31 -20 -10
-12 -24 -19 -30 -16 -25 9 -49 -38 -52 -99 l-3 -60 36 40 c19 22 38 49 43 60
10 22 131 112 131 97 0 -5 -9 -17 -21 -28 -29 -26 -79 -102 -79 -120 0 -36 62
-3 142 75 80 79 128 117 128 101 0 -6 -14 -27 -32 -46 -18 -19 -40 -54 -50
-79 -24 -62 -62 -119 -117 -178 -39 -43 -42 -49 -21 -43 14 5 39 10 57 13 17
3 42 16 54 29 12 13 31 24 41 24 13 0 18 7 18 26 0 14 5 34 10 44 7 13 7 21 0
25 -17 11 -11 35 18 71 33 42 42 42 64 4 17 -30 38 -40 38 -19 0 6 -7 17 -15
26 -8 8 -13 19 -10 24 12 19 55 8 89 -22 20 -17 40 -28 46 -24 6 4 20 -1 30
-10 18 -16 20 -16 37 4 9 12 23 21 30 21 8 0 18 11 23 25 12 31 36 32 46 3 l7
-23 9 24 c7 19 13 22 36 17 15 -4 45 -11 67 -15 22 -4 50 -14 63 -22 20 -12
24 -12 32 1 42 67 61 71 61 12 0 -20 1 -55 2 -77 l2 -40 -90 -13 c-49 -7 -108
-12 -130 -12 -22 1 -56 -7 -77 -16 -39 -18 -40 -31 -2 -68 22 -22 37 -20 22 4
-16 26 -1 40 35 33 28 -6 38 -23 13 -23 -8 0 -18 -5 -22 -11 -4 -8 3 -9 24 -4
18 3 40 1 52 -5 14 -7 25 -8 33 -2 11 9 34 14 145 28 55 8 88 -1 95 -25 3 -12
15 -21 33 -23 23 -2 28 -7 25 -23 -2 -11 -5 -43 -8 -71 -4 -48 -3 -53 27 -74
34 -24 124 -37 183 -26 30 6 35 11 41 44 7 40 39 86 77 108 53 30 90 44 121
44 39 1 62 16 72 48 4 12 18 29 31 38 l24 15 -25 36 c-15 23 -24 50 -24 77 0
23 -7 49 -14 59 -8 10 -11 27 -9 38 5 16 12 20 34 17 16 -3 29 -3 29 0 0 2 -7
28 -16 58 -13 45 -13 58 -3 71 11 13 9 18 -14 35 -35 25 -34 37 5 73 30 27 40
30 121 33 l87 4 0 28 c0 16 5 32 11 35 5 4 8 12 6 18 -2 7 4 29 15 50 10 21
16 42 13 47 -4 6 -10 64 -14 130 -7 114 -9 122 -36 150 -24 25 -36 30 -78 30
-58 0 -102 23 -118 62 l-11 28 -145 0 -144 0 -25 -29 c-39 -47 -126 -91 -179
-91 -31 0 -65 -10 -107 -31 -59 -30 -66 -31 -138 -24 -41 4 -104 8 -140 9 -96
4 -102 7 -140 91 l-35 75 -59 0 -58 0 4 -107 c2 -82 7 -114 21 -133 21 -30 22
-68 2 -94 -22 -29 -19 -103 5 -134 12 -15 41 -53 65 -84 25 -31 45 -60 45 -65
0 -9 65 -63 76 -63 4 0 25 -8 48 -19 23 -10 53 -24 69 -30 15 -6 27 -17 27
-26 0 -13 -15 -15 -112 -9 -62 3 -125 9 -140 14 -16 5 -42 4 -63 -1 -20 -6
-44 -8 -52 -5 -26 10 -64 -6 -74 -31 -9 -23 -35 -41 -45 -30 -10 10 35 84 55
90 13 3 19 12 18 30 -2 25 -4 26 -49 22 -38 -4 -49 -1 -57 13 -5 10 -5 81 2
183 5 91 7 174 4 183 -6 16 -9 16 -29 2 -12 -9 -37 -16 -55 -16 -26 0 -33 4
-33 20 0 13 14 25 46 39 25 12 50 18 55 15 10 -6 11 16 3 69 -8 43 -22 47 -54
13 -12 -14 -35 -28 -51 -31 -42 -9 -52 -27 -35 -61 8 -16 17 -55 21 -86 l6
-58 -30 0 c-44 0 -64 25 -58 72 7 52 -1 78 -29 89 -16 5 -24 17 -24 32 0 13
-4 27 -9 32 -16 17 13 126 38 146 l23 19 -46 0 c-47 0 -59 -13 -34 -38 8 -8 5
-20 -15 -50 -15 -21 -27 -45 -27 -54 0 -8 -9 -27 -20 -41 -11 -14 -20 -32 -20
-40 0 -8 -9 -26 -20 -40 -11 -14 -17 -32 -14 -41 3 -9 -3 -31 -14 -50 -19 -33
-19 -34 -1 -63 18 -29 19 -32 3 -60 -20 -35 -93 -70 -106 -51 -4 7 -8 59 -8
115 0 99 -1 102 -32 137 -17 20 -40 36 -50 36 -20 0 -23 11 -7 27 17 17 2 32
-55 59 -65 30 -145 31 -228 3 -99 -33 -117 -9 -27 37 51 25 129 89 129 105 0
5 -47 9 -105 9 l-105 0 0 -65 c0 -95 -23 -84 -50 23 l-11 42 -114 0 c-96 0
-115 -2 -115 -15 0 -9 -12 -20 -27 -26 -16 -6 -44 -25 -63 -44 -19 -18 -46
-36 -60 -40 -14 -4 -30 -15 -37 -25 -6 -9 -30 -29 -52 -44 l-40 -28 -111 13
c-78 9 -114 18 -118 28 -5 14 -4 18 40 73 15 19 34 51 43 71 l15 37 -345 0
-345 0 0 -57z m2280 -388 c0 -19 -20 -29 -32 -17 -15 15 -2 43 17 36 8 -3 15
-12 15 -19z m106 -95 c-7 -104 -29 -109 -43 -11 -8 63 -7 71 12 87 19 19 20
19 28 0 4 -10 5 -44 3 -76z m-491 -90 c3 -11 3 -24 0 -30 -9 -15 -45 -12 -45
4 0 44 33 63 45 26z m-65 -100 c0 -36 -23 -54 -59 -47 -32 7 -43 -7 -34 -42 6
-25 -9 -27 -32 -5 -15 15 -18 15 -39 -5 -15 -14 -35 -21 -64 -21 -61 0 -64 21
-13 73 40 40 44 42 106 42 53 1 68 5 85 23 25 27 50 18 50 -18z m600 25 c0 -2
-18 -14 -40 -25 -36 -19 -41 -19 -47 -4 -3 9 0 20 8 25 15 9 79 13 79 4z
m-2260 -52 c18 -23 19 -29 6 -41 -9 -10 -24 -12 -46 -7 -41 9 -50 33 -21 57
30 24 36 23 61 -9z m1665 -33 c3 -5 -1 -10 -9 -10 -9 0 -16 5 -16 10 0 6 4 10
9 10 6 0 13 -4 16 -10z m1101 -15 c8 -20 -28 -90 -46 -90 -23 0 -26 62 -4 86
20 23 42 25 50 4z m-2451 -35 c-3 -5 -14 -10 -23 -10 -15 0 -15 2 -2 10 20 13
33 13 25 0z m357 -87 c9 -10 19 -38 23 -62 4 -24 22 -65 40 -90 21 -29 38 -71
48 -116 13 -56 22 -75 47 -96 37 -31 25 -48 -13 -19 -14 11 -34 20 -44 20 -11
0 -28 7 -39 15 -30 23 -62 18 -107 -18 -65 -52 -130 -86 -178 -93 -24 -3 -60
-15 -79 -27 -25 -14 -54 -20 -100 -20 -111 -1 -274 15 -297 29 -11 7 -27 30
-34 51 -6 21 -20 49 -30 62 -22 28 -24 79 -5 125 12 29 25 38 97 65 51 20 97
31 119 29 32 -3 36 -6 43 -43 17 -79 27 -111 48 -145 l21 -34 27 33 c28 34 28
34 55 16 20 -14 30 -15 39 -6 18 18 15 149 -5 199 -33 79 -19 88 74 51 41 -16
69 -20 125 -17 83 4 106 17 80 46 -28 31 -20 58 19 61 6 1 18 -7 26 -16z
m1058 -126 c0 -22 -26 -51 -38 -43 -7 4 -12 18 -12 32 0 19 5 24 25 24 14 0
25 -6 25 -13z m-1628 -926 c16 -6 31 -23 39 -44 7 -21 22 -37 39 -44 25 -9 27
-14 26 -64 -1 -49 -4 -54 -25 -57 -34 -5 -46 12 -46 71 l0 51 -37 7 c-49 8
-78 34 -78 72 0 27 2 29 28 24 15 -3 39 -10 54 -16z m678 -1117 c0 -16 -26
-19 -35 -4 -4 6 -4 18 -1 27 5 12 9 13 21 3 8 -7 15 -19 15 -26z m-142 -736
c-3 -7 -17 -19 -31 -26 -23 -11 -26 -16 -16 -33 16 -31 4 -34 -33 -8 -30 22
-31 24 -11 27 12 2 29 14 37 28 17 25 61 34 54 12z m-123 -18 c8 -12 -42 -12
-70 0 -16 7 -11 9 22 9 23 1 45 -3 48 -9z m520 -115 c-29 -24 -73 -30 -78 -11
-1 5 16 15 38 22 63 19 73 16 40 -11z m65 -45 c0 -5 -2 -10 -4 -10 -3 0 -8 5
-11 10 -3 6 -1 10 4 10 6 0 11 -4 11 -10z"/>
<path d="M5285 12766 c6 -27 2 -39 -14 -55 -18 -18 -21 -33 -21 -97 0 -68 -3
-80 -30 -119 -17 -24 -35 -47 -40 -50 -6 -4 -32 7 -59 24 -26 17 -55 31 -64
31 -9 0 -28 12 -44 26 -49 46 -113 16 -113 -53 0 -18 9 -47 20 -65 26 -42 26
-98 0 -131 -25 -31 -26 -64 -3 -89 21 -24 11 -44 -37 -70 -37 -19 -100 -24
-129 -9 -13 7 -37 0 -91 -27 -71 -36 -75 -39 -89 -87 -9 -27 -20 -53 -26 -57
-17 -13 -55 -9 -61 6 -8 20 -77 46 -123 46 -36 0 -41 -4 -66 -45 -32 -55 -28
-69 31 -137 40 -44 44 -54 39 -81 -4 -18 -11 -36 -16 -41 -14 -16 -10 -72 6
-86 23 -19 139 -5 175 22 28 20 114 29 139 14 6 -4 11 -36 11 -71 0 -35 5 -67
10 -70 6 -4 9 -31 8 -62 -2 -44 -6 -57 -20 -61 -10 -2 -18 -9 -18 -14 0 -5 9
-6 20 -3 20 6 24 -1 21 -37 -5 -50 71 -116 102 -89 8 6 38 12 67 13 44 2 54 6
61 25 10 28 36 42 94 49 31 5 55 16 77 37 30 29 31 34 31 106 -1 84 4 91 57
90 41 0 97 -42 120 -92 8 -17 23 -33 33 -35 21 -4 67 34 67 55 0 17 36 53 54
53 8 0 35 -20 59 -44 l46 -44 67 18 c55 15 74 26 100 57 18 21 33 46 34 55 0
16 -38 93 -74 151 -8 12 -16 37 -20 56 -3 19 -13 43 -22 52 -9 10 -18 35 -21
56 -5 35 -2 41 28 64 41 31 160 89 181 89 16 0 28 -39 28 -89 0 -33 47 -131
63 -131 6 0 21 12 33 27 21 27 21 27 49 9 26 -17 29 -17 40 -2 18 24 22 21 49
-31 25 -48 88 -115 139 -146 46 -29 28 -56 -39 -57 -11 0 -48 -14 -81 -30 -88
-44 -148 -130 -90 -130 34 0 46 -18 40 -56 -6 -34 -6 -34 28 -27 56 10 106 30
146 57 48 33 57 24 77 -72 16 -76 51 -152 72 -152 6 0 19 11 28 25 19 28 38
32 56 10 20 -24 29 -18 43 33 14 46 15 47 58 50 53 4 85 30 93 77 4 18 13 39
22 46 19 16 143 22 161 8 9 -8 22 -8 41 -1 41 14 81 4 87 -22 3 -11 7 -43 10
-71 2 -27 4 -53 4 -57 2 -16 58 -36 84 -31 15 3 37 17 50 30 63 71 66 73 107
73 60 0 120 50 120 99 0 20 -7 45 -15 55 -8 11 -15 26 -15 33 0 17 39 17 42 1
0 -7 2 -17 2 -23 6 -42 122 -105 161 -86 62 29 127 51 149 51 13 0 37 10 53
23 15 13 40 30 54 39 24 15 27 15 42 0 9 -8 32 -17 51 -18 20 -2 45 -8 56 -14
14 -8 26 -8 42 1 11 6 50 15 86 19 50 7 71 14 93 36 22 21 26 31 19 45 -17 30
-12 84 10 104 25 22 48 13 55 -22 3 -15 18 -53 33 -83 26 -53 29 -56 97 -78
77 -26 103 -28 215 -19 148 12 196 18 257 34 60 15 62 17 56 43 -4 22 0 31 16
39 16 9 21 21 21 52 0 22 5 49 10 60 9 16 6 21 -25 36 -19 9 -38 26 -41 37 -4
12 -27 45 -53 75 -84 97 -101 123 -101 156 0 64 11 68 171 70 l144 3 37 -42
36 -41 20 25 20 24 21 -42 c12 -24 30 -46 39 -49 25 -9 62 -45 62 -60 0 -8 13
-26 29 -41 40 -38 46 -63 20 -95 -11 -15 -27 -27 -34 -27 -7 0 -23 -15 -34
-34 -17 -28 -19 -38 -10 -64 12 -36 14 -36 111 -53 70 -12 77 -11 109 8 19 11
45 24 59 28 14 4 36 16 49 26 15 12 40 19 67 19 24 0 44 2 44 5 0 3 -14 18
-30 33 -24 21 -32 38 -37 80 -7 60 1 65 55 32 34 -21 38 -17 22 24 -8 23 -7
26 11 26 17 0 20 4 15 23 -3 12 -6 35 -6 50 0 23 -3 27 -19 22 -22 -7 -61 28
-61 55 0 21 20 40 42 40 14 0 18 8 18 39 0 55 -15 88 -42 96 -55 17 -78 68
-36 84 18 7 21 16 23 72 0 35 5 76 9 90 9 32 -14 59 -50 59 -36 0 -71 40 -79
91 -10 69 -12 73 -60 113 -40 33 -48 36 -62 24 -13 -10 -17 -10 -20 0 -3 8
-34 12 -108 12 l-103 0 -20 -47 c-11 -27 -23 -63 -27 -80 -10 -50 -37 -43 -74
20 -51 88 -74 107 -124 107 -36 0 -46 -4 -50 -20 -4 -15 -14 -20 -42 -20 l-37
0 7 -40 c9 -55 2 -61 -48 -42 -63 25 -117 70 -117 98 l0 24 -160 0 -161 0 16
-29 c8 -17 19 -33 25 -36 5 -3 10 -14 10 -24 0 -9 11 -27 25 -39 24 -21 33
-56 17 -66 -5 -3 -18 5 -30 17 -49 51 -59 59 -96 83 -27 18 -45 23 -57 17 -19
-9 -59 -59 -85 -109 -28 -53 -98 -67 -169 -35 -32 14 -47 31 -73 80 -20 39
-32 76 -32 101 l0 40 -134 0 c-154 0 -146 7 -146 -112 0 -66 1 -68 25 -68 13
0 44 10 69 21 45 22 80 20 71 -4 -3 -7 -33 -25 -65 -41 -33 -15 -60 -33 -60
-40 0 -12 65 -76 126 -122 23 -17 25 -23 15 -41 -6 -12 -11 -47 -11 -77 0 -31
-4 -56 -10 -56 -11 0 -51 77 -70 133 -7 22 -31 58 -54 82 -34 36 -46 42 -68
38 -24 -4 -28 -2 -28 16 0 45 -96 54 -206 20 -80 -25 -105 -18 -121 34 -13 42
-5 169 11 179 25 17 50 5 109 -55 66 -67 116 -96 178 -104 l39 -6 0 59 c0 37
-8 75 -20 102 l-19 42 -1111 0 -1111 0 6 -34z m308 -127 c6 -23 30 -24 84 -5
44 16 75 7 51 -13 -7 -7 -31 -23 -53 -35 -40 -23 -42 -27 -30 -58 6 -15 1 -18
-33 -18 -33 0 -44 -5 -60 -27 -29 -43 -34 -61 -42 -156 -9 -122 -24 -130 -94
-51 -38 43 -38 45 -21 64 10 12 30 26 43 33 25 12 97 160 87 177 -3 5 -20 11
-38 15 -58 12 -67 16 -67 32 0 13 9 15 60 9 59 -7 59 -7 66 21 4 15 9 31 11
35 7 12 31 -3 36 -23z m3625 -101 c-6 -16 -36 -34 -44 -25 -9 9 15 37 33 37 8
0 13 -5 11 -12z m16 -142 c31 -26 61 -39 116 -51 104 -23 130 -34 130 -57 0
-28 -38 -38 -84 -22 -21 8 -49 11 -62 8 -15 -4 -32 1 -50 15 -15 12 -33 21
-41 21 -7 0 -27 21 -43 47 -50 79 -36 96 34 39z m-3289 -90 c9 -13 30 -26 47
-30 31 -6 31 -6 12 -27 -18 -20 -18 -22 -1 -51 29 -51 23 -62 -24 -36 l-40 23
-40 -45 c-43 -50 -46 -46 -24 26 8 27 15 50 15 50 0 1 -18 9 -40 18 -53 21
-51 34 8 38 43 3 47 5 50 31 4 33 17 35 37 3z m1905 -142 c0 -7 9 -18 20 -24
24 -13 26 -38 5 -47 -29 -11 -76 61 -59 89 7 11 34 -3 34 -18z m-2290 -26 c-1
-7 -21 -35 -45 -62 -37 -42 -46 -47 -59 -36 -24 19 -19 48 13 81 31 30 91 42
91 17z m1707 -128 c4 -15 14 -20 40 -20 20 0 56 -7 82 -15 25 -8 72 -17 104
-21 46 -4 61 -10 73 -30 9 -13 24 -24 34 -24 9 0 29 -9 43 -20 14 -12 43 -27
64 -34 40 -14 50 -35 39 -82 -8 -31 -36 -31 -84 0 -56 37 -154 36 -210 0 -2
-2 2 -18 9 -38 13 -37 1 -86 -22 -86 -6 0 -22 -9 -36 -20 -14 -11 -29 -20 -33
-20 -4 0 -15 24 -25 53 -9 28 -23 59 -30 67 -7 8 -16 26 -20 38 -4 13 -26 43
-48 66 -23 24 -53 58 -66 76 -22 30 -23 36 -11 69 18 51 28 61 62 61 21 0 31
-6 35 -20z m518 -115 c0 -10 -6 -20 -12 -22 -8 -3 -13 5 -13 22 0 17 5 25 13
23 6 -3 12 -13 12 -23z m239 -20 c7 -18 -2 -45 -15 -45 -13 0 -22 27 -15 45 3
8 10 15 15 15 5 0 11 -7 15 -15z m-2954 -17 c0 -16 -3 -19 -11 -11 -6 6 -8 16
-5 22 11 17 16 13 16 -11z m-199 -22 c15 -12 33 -36 40 -52 8 -15 26 -35 41
-43 24 -14 28 -14 46 2 17 16 21 16 32 2 17 -20 30 -19 30 4 0 32 22 81 36 81
16 0 19 -21 4 -36 -16 -16 -21 -95 -8 -130 9 -27 7 -35 -18 -72 -16 -23 -35
-41 -43 -42 -13 0 -81 28 -197 82 -34 15 -69 28 -78 28 -20 0 -20 4 -1 41 11
21 14 43 9 78 -6 47 -5 50 22 65 39 21 54 19 85 -8z m1533 -51 c7 -20 -3 -45
-19 -45 -14 0 -27 38 -19 52 8 13 31 9 38 -7z m211 -65 c24 -27 12 -38 -45
-42 -54 -4 -60 13 -15 42 37 25 38 25 60 0z"/>
<path d="M9696 12784 c-11 -28 -19 -160 -12 -188 4 -18 18 -31 45 -42 45 -18
97 -86 110 -147 6 -23 15 -43 22 -46 33 -11 57 -53 63 -111 4 -33 5 -64 2 -69
-8 -12 11 -110 26 -139 10 -19 9 -28 -4 -50 -26 -43 -21 -112 9 -144 27 -28
32 -35 75 -114 30 -55 83 -114 102 -114 7 0 21 -8 32 -18 11 -11 33 -23 49
-29 21 -7 33 -20 41 -44 6 -18 28 -50 47 -71 50 -52 60 -73 42 -88 -15 -12
-17 -67 -3 -76 12 -8 10 -50 -4 -62 -7 -5 -28 -13 -45 -17 -37 -7 -34 -12 -37
85 0 29 -7 55 -16 64 -13 13 -150 49 -158 41 -6 -6 36 -130 44 -131 53 -5 147
-84 100 -84 -7 0 -21 -12 -31 -26 -15 -23 -15 -27 0 -47 52 -71 65 -91 65 -97
0 -3 -16 -25 -35 -47 -19 -23 -35 -46 -35 -52 0 -5 -16 -22 -36 -37 -31 -24
-39 -26 -65 -17 -35 13 -38 0 -5 -22 21 -14 27 -14 69 4 37 16 46 17 51 6 4
-12 10 -12 33 -2 52 23 103 62 103 79 0 21 37 48 67 48 12 0 27 9 33 19 5 11
20 23 32 26 45 12 88 40 94 59 8 24 32 50 63 66 29 15 113 6 147 -17 18 -11
36 -14 67 -8 23 3 56 9 73 12 20 3 34 0 43 -11 16 -19 6 -36 -20 -36 -47 0
-160 -74 -184 -120 -21 -41 -19 -48 18 -52 30 -3 32 -5 31 -42 l-1 -38 51 5
c28 2 59 8 68 12 13 5 20 1 27 -17 13 -34 61 -84 89 -93 13 -4 40 -25 60 -47
l36 -40 24 28 c24 27 24 27 53 10 17 -10 37 -15 45 -12 19 7 142 -73 150 -97
8 -25 -1 -31 -42 -29 -33 3 -35 1 -29 -20 34 -108 141 -205 232 -211 36 -2 37
-1 45 43 4 24 4 59 -1 78 -11 39 -78 142 -92 142 -19 0 -69 41 -69 56 0 8 8
14 18 14 9 0 32 9 50 20 41 25 44 25 81 -6 37 -31 59 -28 123 15 24 15 60 34
80 40 20 7 65 34 99 62 34 27 63 49 64 49 1 0 14 -11 29 -25 15 -14 37 -25 48
-25 12 0 29 -7 39 -16 16 -14 20 -14 44 2 17 11 59 20 117 25 79 6 94 10 109
30 20 27 16 39 -11 39 -22 0 -40 28 -40 63 0 26 57 79 118 111 17 9 32 21 32
26 0 18 19 10 25 -11 4 -11 27 -41 51 -67 24 -25 44 -55 44 -67 0 -32 19 -45
67 -45 40 0 43 2 52 36 6 20 16 44 24 53 8 9 17 46 20 83 4 53 10 74 31 98 28
34 32 60 16 91 -11 20 -64 27 -75 9 -3 -5 -15 -10 -26 -10 -14 0 -28 18 -51
67 -35 72 -95 143 -121 143 -18 0 -22 26 -11 66 5 18 16 22 65 28 39 4 72 15
98 32 33 21 43 24 61 14 11 -6 33 -10 48 -8 27 3 27 3 30 97 2 58 -2 106 -9
124 -11 27 -15 29 -51 23 -34 -6 -40 -4 -50 19 -6 14 -16 25 -21 25 -5 0 -29
-18 -53 -40 -24 -22 -48 -40 -53 -40 -16 0 -21 30 -14 88 6 50 11 61 55 104
54 53 60 79 23 96 -16 7 -23 17 -19 27 8 21 -18 19 -46 -3 -19 -15 -23 -30
-25 -77 -1 -47 -6 -61 -24 -77 -25 -19 -66 -24 -76 -8 -3 5 -23 14 -44 20 -50
13 -59 35 -23 57 15 9 29 18 31 19 1 2 -4 13 -13 25 -9 13 -13 32 -10 46 8 28
-14 85 -29 76 -7 -4 -8 2 -3 18 4 13 12 42 17 63 10 41 37 74 77 95 29 16 28
39 -3 51 -19 7 -25 17 -25 40 0 18 6 33 15 36 9 4 31 41 51 83 19 42 39 83 45
91 18 30 29 62 23 71 -11 19 -35 8 -56 -26 -11 -20 -37 -45 -57 -56 -20 -10
-43 -24 -52 -31 -37 -26 -75 27 -65 91 3 19 18 47 32 63 l28 28 -105 0 c-70 0
-109 -4 -117 -12 -10 -10 -17 -10 -32 0 -13 8 -68 12 -167 12 l-148 0 -34 -41
c-19 -23 -38 -60 -43 -85 -11 -52 -28 -56 -82 -19 -60 40 -82 33 -182 -61 -50
-47 -60 -94 -24 -116 31 -20 24 -52 -24 -105 -44 -49 -76 -109 -76 -144 0 -38
-30 -18 -56 37 -20 43 -40 65 -87 100 -34 24 -69 43 -77 42 -9 -2 -17 -18 -20
-43 -5 -37 -8 -40 -39 -43 -30 -3 -33 -6 -26 -30 15 -62 17 -82 7 -82 -22 0
-80 30 -85 45 -4 8 -16 15 -27 15 -12 0 -32 11 -46 25 -36 36 -73 33 -117 -10
-20 -19 -45 -35 -56 -35 -11 0 -25 -8 -30 -19 -13 -23 -51 -38 -119 -46 -42
-5 -53 -3 -58 10 -4 9 -23 23 -44 31 -41 16 -60 47 -60 96 0 36 -58 98 -93 98
-12 0 -31 7 -41 15 -11 8 -25 15 -32 15 -7 0 -24 4 -38 10 -18 7 -24 14 -19
26 5 14 18 16 95 12 86 -5 89 -5 125 23 19 16 41 29 47 29 20 0 76 64 76 86 0
22 -48 74 -68 74 -23 0 -122 62 -122 76 0 11 -17 14 -74 14 -66 0 -75 -2 -81
-20 -3 -11 -14 -24 -24 -30 -10 -5 -23 -29 -29 -52 -13 -51 -70 -112 -95 -102
-24 9 -22 57 3 79 15 14 20 31 20 72 l0 53 -174 0 c-152 0 -175 -2 -180 -16z
m1914 -570 c0 -17 9 -43 20 -57 11 -14 20 -29 20 -35 0 -5 -37 -12 -83 -14
-47 -3 -97 -13 -115 -22 -39 -20 -62 -21 -62 -1 0 8 22 26 49 40 28 14 72 50
102 85 56 63 69 64 69 4z m409 -171 c12 -43 10 -48 -17 -34 -13 7 -22 7 -30
-1 -5 -5 -16 -8 -22 -6 -9 3 -9 8 2 19 9 8 19 25 22 37 11 34 34 26 45 -15z
m-639 -4 c0 -24 -23 -21 -28 4 -2 10 3 17 12 17 10 0 16 -9 16 -21z m67 -63
c15 -13 44 -31 63 -41 42 -21 51 -34 44 -59 -5 -15 -3 -18 12 -12 11 4 34 10
53 13 31 6 33 5 26 -18 -14 -44 -11 -54 18 -57 33 -4 35 -15 4 -29 -28 -13
-44 -45 -52 -106 -4 -33 -16 -59 -36 -82 -26 -29 -29 -39 -23 -70 3 -19 14
-40 24 -45 10 -5 20 -21 22 -35 8 -39 -45 -74 -127 -84 -36 -4 -67 -5 -70 -3
-3 3 -5 20 -5 39 0 29 -3 33 -26 33 -34 0 -27 21 12 33 16 5 38 17 49 27 11
10 29 21 41 24 11 3 31 17 44 31 25 26 24 27 -32 39 -17 4 -34 18 -43 37 -15
28 -18 29 -37 17 -11 -8 -26 -29 -32 -48 -15 -48 -40 -50 -85 -6 -35 35 -131
76 -175 76 -30 0 -66 28 -66 50 0 23 13 27 130 39 63 7 87 6 92 -2 4 -7 18
-30 30 -51 29 -49 44 -55 59 -22 14 31 44 34 59 6 18 -33 28 -23 41 38 15 71
2 143 -41 225 -16 31 -30 59 -30 62 0 13 31 3 57 -19z m498 -426 c0 -16 -9
-29 -27 -39 -30 -17 -41 -11 -53 27 -5 17 -1 24 17 32 39 15 63 8 63 -20z
m380 -19 c0 -33 -3 -36 -60 -58 -32 -13 -67 -21 -76 -18 -19 6 -66 64 -71 86
-3 15 76 27 162 25 44 -1 45 -1 45 -35z m151 -133 c-4 -13 -14 -52 -24 -88
l-17 -65 -65 -6 c-36 -3 -72 -9 -81 -13 -10 -4 -20 -3 -23 3 -4 5 20 28 52 50
33 22 78 63 101 90 46 55 67 65 57 29z m-921 -218 c3 -5 -3 -10 -15 -10 -12 0
-18 5 -15 10 3 6 10 10 15 10 5 0 12 -4 15 -10z m-1152 -31 c12 -19 -16 -89
-35 -89 -19 0 -48 32 -48 53 0 48 60 73 83 36z m1539 -13 c6 -14 8 -31 4 -38
-67 -127 -76 -134 -134 -98 -42 26 -49 46 -26 71 14 15 28 20 59 17 36 -3 40
-1 43 22 7 57 34 69 54 26z m-252 7 c0 -57 -51 -122 -85 -109 -19 7 -20 45 0
52 8 3 17 14 20 23 7 24 65 53 65 34z m507 -29 c8 -21 -29 -85 -47 -82 -25 5
-35 63 -16 93 14 21 20 24 37 15 11 -6 23 -18 26 -26z"/>
<path d="M2341 12766 c-6 -7 -20 -12 -30 -9 -26 7 -61 -14 -61 -35 0 -10 -5
-23 -12 -30 -15 -15 -6 -15 55 2 36 9 52 19 63 41 16 31 5 55 -15 31z"/>
<path d="M4305 12748 c-11 -6 -21 -12 -23 -14 -6 -4 28 -64 37 -64 4 0 16 9
26 20 10 11 24 20 31 20 7 0 16 -9 19 -20 7 -22 16 -25 31 -11 5 5 25 12 46
16 31 6 38 4 49 -17 17 -33 30 -39 65 -33 26 4 34 1 48 -20 14 -21 20 -24 32
-14 22 18 16 37 -15 44 -15 3 -34 17 -41 30 -7 14 -19 25 -27 25 -7 0 -13 4
-13 8 0 5 -13 7 -28 4 -18 -2 -37 4 -52 16 -25 20 -25 20 -64 0 l-40 -20 -17
21 c-19 23 -34 26 -64 9z"/>
<path d="M4153 12553 c1 -16 -3 -45 -7 -65 -5 -24 -5 -38 2 -38 10 0 22 55 22
103 0 15 -4 27 -9 27 -4 0 -8 -12 -8 -27z"/>
<path d="M4400 12525 c0 -9 9 -15 25 -15 28 0 34 15 9 24 -25 10 -34 7 -34 -9z"/>
<path d="M4187 12478 c4 -18 16 -40 27 -49 16 -14 18 -20 8 -31 -14 -18 -52
-124 -52 -147 0 -9 24 -32 52 -51 43 -29 59 -34 110 -35 57 0 61 2 99 42 49
53 50 77 4 104 -41 25 -55 46 -55 88 0 16 -4 41 -10 56 -9 23 -14 25 -44 20
-20 -4 -36 -2 -40 4 -4 6 -20 11 -36 11 -16 0 -32 5 -35 10 -3 6 -13 10 -20
10 -11 0 -13 -8 -8 -32z"/>
<path d="M4495 12500 c3 -5 16 -10 28 -10 18 0 19 2 7 10 -20 13 -43 13 -35 0z"/>
<path d="M3883 11999 c-17 -22 -25 -56 -27 -120 -2 -48 -8 -65 -28 -87 -14
-15 -31 -37 -37 -49 -10 -20 -8 -23 23 -29 44 -8 52 -2 60 39 5 24 22 48 61
83 30 27 55 53 55 59 0 5 -17 26 -37 45 -21 19 -43 44 -48 54 -9 15 -12 16
-22 5z"/>
<path d="M9160 11965 c0 -21 30 -66 40 -60 9 5 -21 74 -32 75 -5 0 -8 -7 -8
-15z"/>
<path d="M9085 11770 c-8 -13 3 -30 20 -30 11 0 25 20 25 36 0 9 -39 4 -45 -6z"/>
<path d="M9125 11670 c-3 -5 -1 -10 4 -10 6 0 11 5 11 10 0 6 -2 10 -4 10 -3
0 -8 -4 -11 -10z"/>
<path d="M4029 11647 c-27 -22 -69 -95 -69 -119 0 -8 22 -35 48 -61 33 -33 56
-47 75 -47 28 0 97 24 97 34 0 3 -9 20 -19 37 -15 24 -17 38 -10 56 15 40 11
83 -8 89 -10 3 -31 12 -46 20 -36 18 -37 18 -68 -9z"/>
<path d="M2600 11627 c-19 -13 -49 -29 -67 -36 -17 -7 -34 -19 -37 -27 -3 -8
-13 -14 -23 -14 -9 0 -32 -14 -50 -32 -25 -24 -36 -29 -44 -21 -9 9 -18 8 -37
-5 -21 -14 -26 -14 -36 -1 -12 17 -85 41 -98 33 -4 -3 -20 3 -36 14 -41 28
-61 36 -29 12 30 -24 35 -48 12 -56 -8 -4 -15 -15 -15 -26 0 -32 -19 -58 -44
-58 -13 0 -31 -9 -42 -21 -15 -17 -26 -20 -57 -15 -21 4 -48 13 -60 20 -12 8
-41 17 -64 21 -23 4 -54 16 -68 26 -13 11 -40 23 -58 26 -29 4 -43 -1 -93 -40
-84 -64 -99 -82 -99 -127 0 -33 8 -47 58 -98 31 -33 57 -69 57 -79 0 -10 -14
-38 -30 -62 -17 -24 -30 -48 -30 -53 0 -5 19 -8 43 -6 38 3 42 6 45 31 2 16 9
26 15 24 6 -2 33 -40 60 -84 l48 -81 -20 -38 c-12 -21 -21 -46 -21 -56 0 -9
-20 -31 -43 -47 -72 -49 -99 -111 -49 -111 30 0 44 -23 33 -53 -5 -14 -7 -27
-5 -30 10 -9 111 20 147 42 46 28 95 84 118 135 18 40 18 41 -1 60 -19 19 -19
20 12 38 28 18 30 22 24 61 -4 23 -14 66 -23 94 -19 62 -14 77 53 158 23 28
49 65 58 83 9 18 24 36 32 39 22 8 17 31 -11 49 -27 17 -34 54 -11 54 7 0 25
-9 39 -20 14 -11 34 -20 45 -20 11 0 28 -7 37 -16 15 -15 18 -15 39 5 28 26
61 27 83 2 18 -22 35 -19 26 5 -14 36 65 72 94 43 8 -8 17 -7 34 1 21 12 21
14 6 25 -37 27 -2 90 44 78 10 -3 26 0 34 7 13 11 13 14 -2 25 -14 11 -16 18
-8 42 6 15 20 32 33 38 15 7 22 18 22 37 0 16 -1 28 -3 28 -1 0 -18 -10 -37
-23z m-375 -158 c4 -5 4 -21 1 -35 -9 -34 -49 -30 -54 5 -5 33 37 57 53 30z
m255 -8 c0 -20 -13 -41 -25 -41 -21 0 -28 19 -15 35 14 17 40 20 40 6z m-192
-68 c3 -22 -22 -48 -38 -38 -14 8 -13 38 2 53 16 16 32 10 36 -15z m90 0 c-4
-36 -38 -45 -38 -10 0 27 7 37 27 37 10 0 13 -9 11 -27z"/>
<path d="M12670 11538 c-46 -10 -100 -42 -100 -58 0 -5 14 -25 31 -44 32 -37
112 -80 167 -90 l32 -5 0 104 0 105 -42 -1 c-24 -1 -63 -6 -88 -11z"/>
<path d="M9010 11517 c0 -47 -108 -67 -145 -27 -22 24 -35 26 -35 5 0 -9 9
-15 23 -15 l22 0 -24 -19 -24 -18 23 -6 c19 -5 21 -10 16 -34 -14 -58 -12 -69
16 -103 16 -19 33 -41 39 -47 5 -7 22 -13 36 -13 38 0 102 -47 118 -87 27 -65
93 -23 109 69 7 37 45 78 72 78 21 0 34 34 34 89 0 42 -5 56 -30 85 l-30 34
-95 -1 c-63 0 -99 4 -109 12 -13 11 -16 11 -16 -2z"/>
<path d="M9940 11387 c0 -20 26 -52 33 -40 10 15 -4 53 -19 53 -8 0 -14 -6
-14 -13z"/>
<path d="M4036 11328 c-20 -128 -19 -131 11 -160 17 -17 42 -28 63 -30 25 -2
39 -10 47 -27 15 -27 17 -51 5 -51 -5 0 -14 -11 -20 -25 -9 -20 -17 -24 -43
-21 -18 2 -38 10 -44 20 -31 41 -75 -1 -75 -72 0 -30 2 -33 15 -22 13 10 15 9
15 -9 0 -15 5 -21 17 -19 11 2 19 -5 21 -17 2 -11 10 -24 18 -28 21 -12 17
-43 -8 -59 -33 -22 -18 -46 27 -43 41 3 57 19 49 51 -3 12 0 32 6 44 9 16 9
25 1 33 -13 13 -14 37 -2 37 5 0 17 -20 27 -45 9 -25 21 -45 25 -45 12 0 11
11 -6 40 -8 14 -14 39 -15 57 0 43 27 57 91 49 26 -4 50 -2 53 3 3 5 15 7 26
4 27 -7 26 -1 -12 73 -22 43 -39 64 -50 64 -22 0 -23 -25 -3 -60 8 -14 14 -34
14 -45 0 -14 -7 -8 -25 23 -27 44 -50 56 -41 21 5 -20 5 -20 -14 -3 -10 9 -19
24 -19 33 -1 9 -9 34 -19 56 -12 23 -17 51 -14 70 4 26 -3 38 -51 88 -31 31
-58 57 -60 57 -2 0 -7 -19 -10 -42z m-6 -339 c0 -5 -4 -9 -10 -9 -5 0 -10 7
-10 16 0 8 5 12 10 9 6 -3 10 -10 10 -16z"/>
<path d="M4354 11335 c-7 -30 13 -85 32 -85 16 0 44 39 44 62 0 10 -13 24 -30
33 -38 20 -39 19 -46 -10z"/>
<path d="M8500 11323 c-32 -6 -36 -11 -44 -54 -6 -32 -1 -42 36 -89 46 -58 54
-106 24 -139 -25 -27 -20 -60 11 -72 37 -14 114 -1 141 24 18 17 40 22 94 25
64 4 75 8 102 35 27 27 30 35 29 89 -1 32 -4 62 -7 67 -3 5 -33 11 -67 15 -34
4 -78 16 -98 27 -19 10 -48 19 -62 19 -15 0 -33 7 -40 17 -14 16 -71 44 -86
42 -4 -1 -19 -4 -33 -6z"/>
<path d="M6745 11302 c-27 -6 -31 -12 -35 -53 -6 -53 -19 -72 -58 -88 -30 -13
-67 -76 -55 -94 4 -7 18 -20 30 -30 13 -11 30 -35 38 -54 15 -35 16 -35 57
-29 23 4 49 13 58 20 8 7 23 16 32 19 34 12 60 112 39 146 -6 9 -4 26 6 47 37
76 -21 136 -112 116z"/>
<path d="M7695 11210 c-11 -3 -45 -17 -75 -32 -30 -15 -63 -29 -72 -32 -25 -8
-23 -43 4 -51 15 -6 26 -1 38 15 15 20 24 22 96 19 l79 -4 3 28 c5 45 -28 71
-73 57z"/>
<path d="M3217 11177 c-22 -17 -42 -22 -86 -22 -81 0 -91 -11 -88 -95 2 -57
-2 -72 -19 -92 -22 -25 -46 -96 -37 -110 17 -28 84 21 151 110 42 57 123 155
144 175 46 44 -13 75 -65 34z"/>
<path d="M2148 11143 c-65 -66 -88 -121 -88 -210 0 -42 5 -75 11 -79 20 -12
91 19 139 63 58 52 90 114 90 171 l0 42 -39 -6 c-39 -6 -40 -6 -46 30 -4 20
-10 36 -14 36 -4 0 -28 -21 -53 -47z"/>
<path d="M4600 11143 c0 -28 -4 -55 -10 -58 -5 -3 -10 -11 -10 -17 0 -6 8 -4
18 5 10 10 24 17 30 17 19 0 13 53 -8 80 l-20 25 0 -52z"/>
<path d="M9998 11133 c-2 -5 -3 -21 -3 -38 0 -25 4 -31 28 -33 39 -5 47 23 14
54 -28 26 -34 28 -39 17z"/>
<path d="M4455 11023 c-14 -8 -29 -12 -33 -9 -13 8 -35 -11 -28 -23 4 -6 13
-8 19 -4 6 4 24 6 39 5 14 -1 29 2 33 8 3 5 14 10 24 10 10 0 24 6 30 14 10
12 6 14 -23 13 -19 0 -47 -7 -61 -14z"/>
<path d="M4523 10974 c1 -15 8 -29 15 -32 10 -3 13 4 10 24 -4 37 -28 45 -25
8z"/>
<path d="M4560 10959 c0 -11 5 -17 10 -14 6 3 10 13 10 21 0 8 -4 14 -10 14
-5 0 -10 -9 -10 -21z"/>
<path d="M7559 10960 c-15 -4 -36 -17 -47 -28 -11 -11 -25 -21 -32 -24 -8 -2
-14 -29 -17 -70 -5 -77 11 -104 56 -94 14 3 48 9 75 14 62 12 90 41 80 86 -3
17 -11 36 -16 43 -5 6 -13 24 -17 39 -8 32 -41 45 -82 34z"/>
<path d="M9742 10880 c-17 -28 -16 -30 23 -30 28 0 35 4 35 19 0 17 -18 31
-38 31 -4 0 -13 -9 -20 -20z"/>
<path d="M10545 10849 c-38 -10 -90 -21 -116 -24 -72 -10 -83 -21 -66 -70 10
-30 21 -42 43 -49 27 -8 113 -48 174 -81 68 -36 138 -65 157 -65 12 0 34 11
49 23 25 22 28 31 30 98 3 77 -2 89 -43 89 -12 0 -46 19 -75 43 -29 24 -60 46
-68 49 -8 3 -46 -3 -85 -13z"/>
<path d="M2221 10849 c-49 -10 -113 -40 -118 -56 -6 -16 45 -71 91 -98 56 -32
127 -49 178 -41 67 10 74 18 52 56 l-19 32 29 23 29 23 -24 15 c-66 43 -147
61 -218 46z"/>
<path d="M9590 10786 c0 -9 30 -14 35 -6 4 6 -3 10 -14 10 -12 0 -21 -2 -21
-4z"/>
<path d="M4160 10750 c0 -5 -7 -10 -15 -10 -16 0 -20 -16 -6 -24 12 -8 61 17
61 32 0 6 -9 12 -20 12 -11 0 -20 -4 -20 -10z"/>
<path d="M2032 10737 c-56 -67 -69 -205 -27 -294 27 -58 45 -66 65 -28 16 29
27 31 58 9 13 -9 25 -14 28 -12 2 3 8 27 13 54 17 87 -15 189 -79 253 -35 35
-43 37 -58 18z"/>
<path d="M4060 10716 c0 -8 5 -18 10 -21 6 -3 10 1 10 9 0 8 -4 18 -10 21 -5
3 -10 -1 -10 -9z"/>
<path d="M12190 10701 c0 -6 -12 -17 -26 -23 -32 -15 -58 -72 -44 -99 16 -28
23 -24 58 30 35 53 44 91 25 98 -7 3 -13 0 -13 -6z"/>
<path d="M11752 10644 c-71 -60 -93 -108 -95 -209 -2 -79 0 -88 21 -105 12
-10 22 -27 22 -38 0 -11 8 -34 17 -51 24 -40 12 -48 -34 -21 -36 21 -38 21
-51 3 -26 -33 -51 -97 -57 -149 -8 -60 11 -132 49 -178 l23 -30 18 27 c28 43
45 35 45 -20 0 -27 4 -53 8 -59 11 -17 99 -44 184 -58 57 -9 83 -18 98 -34 12
-12 29 -22 39 -22 10 0 30 -9 44 -21 15 -11 39 -21 54 -22 23 -2 29 2 31 25 5
45 27 53 51 19 27 -37 26 -45 -4 -65 -16 -10 -25 -26 -25 -42 0 -63 -48 -85
-88 -39 -19 21 -30 25 -81 25 l-59 0 -36 -50 c-40 -55 -59 -61 -99 -30 -30 24
-70 26 -87 5 -17 -20 -45 -19 -70 3 -47 41 -90 84 -90 91 0 5 -18 16 -40 26
-37 17 -43 17 -77 2 -51 -21 -99 -34 -157 -42 -78 -11 -76 -7 -76 -105 0 -70
4 -92 19 -111 35 -45 35 -66 1 -109 -36 -45 -36 -64 -4 -155 24 -69 30 -75 81
-75 l45 0 -6 -33 c-4 -22 -1 -40 10 -55 l16 -23 19 20 c22 23 49 27 67 9 18
-18 15 -35 -10 -57 -21 -20 -26 -59 -13 -100 5 -15 -1 -24 -24 -36 -33 -17
-34 -21 -31 -107 2 -76 -37 -158 -87 -182 -39 -18 -58 -54 -49 -90 5 -22 12
-25 59 -28 46 -3 52 -6 55 -27 2 -13 18 -46 35 -74 l31 -50 -24 -19 c-26 -21
-42 -13 -66 34 -8 16 -23 28 -33 28 -11 0 -33 12 -51 26 -30 25 -31 26 -50 9
-16 -15 -25 -16 -44 -7 -49 22 -76 -3 -76 -70 0 -39 -46 -60 -142 -66 l-78 -5
0 -63 c0 -48 4 -67 18 -81 11 -10 22 -26 25 -35 3 -10 19 -20 34 -24 37 -9 93
-58 116 -100 22 -43 40 -43 89 2 36 32 43 35 81 29 23 -4 58 -18 78 -31 19
-13 40 -24 45 -24 22 0 65 59 84 115 25 72 55 108 79 94 9 -5 37 -18 64 -29
49 -20 67 -46 67 -96 0 -18 9 -27 34 -38 43 -18 58 -45 54 -99 -3 -39 -5 -42
-34 -45 -20 -2 -36 4 -49 18 -34 38 -95 16 -176 -64 -48 -47 -57 -77 -35 -112
10 -13 14 -33 11 -43 -4 -13 1 -20 16 -24 18 -5 20 -11 15 -34 -4 -15 -7 -37
-7 -48 0 -18 -3 -17 -23 8 -15 19 -28 26 -39 21 -34 -13 -50 15 -43 75 5 44 3
58 -11 73 -10 11 -23 38 -28 61 -13 52 -36 59 -52 16 -15 -40 -36 -29 -27 15
4 25 2 35 -9 39 -19 7 -30 -18 -27 -62 1 -26 -4 -39 -21 -52 -20 -15 -24 -29
-29 -97 -4 -54 -13 -89 -25 -108 l-19 -29 -11 35 c-5 19 -14 42 -20 50 -5 8
-15 26 -22 40 -10 22 -11 20 -7 -22 2 -25 13 -62 24 -81 18 -30 19 -36 5 -47
-8 -7 -15 -20 -15 -30 0 -10 -7 -21 -15 -24 -10 -3 -16 -18 -16 -38 0 -18 -2
-59 -3 -91 -3 -65 1 -70 75 -82 22 -3 51 -19 74 -40 38 -37 50 -41 60 -25 3 6
15 10 25 10 10 0 28 12 40 27 19 24 23 26 31 11 5 -9 28 -19 52 -23 23 -4 48
-11 56 -15 29 -15 81 44 81 91 0 34 -3 38 -27 41 -34 4 -43 40 -17 69 17 18
17 20 -1 33 -14 10 -17 21 -12 45 4 18 3 41 -3 50 -7 14 -3 23 21 40 l29 22
25 -27 c19 -20 25 -38 25 -71 0 -36 4 -46 20 -50 11 -3 20 -14 20 -23 0 -10 9
-22 20 -25 11 -3 23 -18 26 -33 4 -15 15 -35 25 -45 11 -10 19 -27 19 -38 0
-11 9 -38 20 -61 33 -68 36 -103 9 -121 -18 -13 -20 -19 -10 -30 13 -16 1 -30
-36 -41 -32 -10 -43 -29 -58 -101 -8 -36 -23 -77 -35 -92 -31 -39 -27 -92 10
-126 25 -24 41 -29 103 -34 87 -7 117 5 117 44 0 34 34 84 74 109 17 10 67 38
112 61 44 22 93 52 107 66 26 23 26 25 9 40 -27 25 -102 50 -155 52 -57 2 -66
9 -43 34 10 11 13 21 7 25 -12 8 -6 118 8 145 29 54 105 32 196 -56 58 -58 65
-68 65 -104 0 -22 -9 -57 -20 -79 l-20 -39 23 -6 c12 -4 43 -28 68 -53 25 -26
56 -55 70 -64 22 -17 23 -19 7 -31 -23 -18 -23 -29 2 -77 47 -91 135 -160 212
-163 l43 -2 3 47 c2 33 -5 67 -24 113 -31 79 -26 90 43 86 26 -1 49 -3 50 -5
2 -1 -3 -34 -10 -72 -7 -38 -11 -88 -9 -111 4 -37 7 -43 28 -43 13 0 44 10 69
22 l45 22 0 294 0 295 -36 43 c-31 39 -35 49 -32 91 3 44 5 49 36 58 l32 9 0
246 0 246 -35 34 c-39 37 -37 50 6 50 l29 0 0 571 c0 453 -3 570 -12 566 -7
-2 -44 -26 -83 -51 -51 -35 -77 -46 -99 -44 -28 3 -30 7 -42 66 -20 96 -91
203 -127 189 -8 -3 -25 -27 -38 -54 -21 -41 -24 -62 -24 -147 l1 -98 -73 6
c-159 15 -186 57 -80 124 98 62 177 166 161 214 -9 28 41 68 76 62 36 -7 94
20 147 68 53 50 81 101 90 163 l6 46 -44 -3 c-42 -3 -44 -2 -47 26 -4 33 27
72 75 92 43 19 50 50 23 97 -13 22 -20 48 -18 69 3 32 2 33 -36 36 -29 3 -48
-3 -70 -19 -21 -16 -45 -23 -76 -24 -39 0 -46 3 -58 27 -17 36 -56 61 -117 76
-64 17 -70 23 -108 101 -44 90 -97 141 -146 141 -34 0 -71 -22 -92 -56 -12
-20 -34 -37 -54 -44 -19 -6 -35 -15 -35 -20 0 -12 -88 -70 -106 -70 -22 0 -18
63 6 85 25 22 27 85 4 119 -20 31 -8 37 47 25 55 -13 175 -7 191 9 9 9 7 17
-10 35 -28 29 -28 33 4 60 25 22 25 23 7 39 -10 9 -40 25 -68 35 -43 16 -50
23 -53 48 -2 17 -14 39 -28 51 l-25 21 20 52 c12 28 21 70 21 92 0 38 -2 41
-24 35 -13 -3 -31 -8 -39 -12 -11 -4 -18 5 -27 30 -6 20 -15 36 -19 36 -4 0
-26 -16 -49 -36z m36 -296 c-3 -7 -15 -15 -28 -16 -21 -3 -22 -2 -11 12 16 19
44 21 39 4z m684 -662 c15 -21 15 -24 -4 -55 -29 -45 -52 -38 -56 17 -5 69 24
88 60 38z m-412 -443 c9 -34 64 -73 104 -73 38 0 49 -15 18 -24 -9 -3 -41 -21
-70 -40 -32 -22 -52 -30 -52 -22 0 8 7 19 15 26 17 14 20 40 5 40 -18 0 -80
62 -80 81 0 19 27 41 45 35 5 -1 12 -12 15 -23z m-257 -90 c15 -21 30 -54 33
-73 4 -19 14 -42 24 -50 28 -24 33 -74 10 -103 -16 -20 -18 -31 -11 -50 6 -14
16 -29 24 -34 37 -22 49 -94 20 -125 -11 -13 -18 -38 -19 -73 -1 -29 -5 -58
-8 -64 -4 -6 -37 -11 -75 -11 -73 0 -80 -6 -81 -66 0 -11 -9 -29 -20 -39 -11
-10 -20 -25 -20 -34 0 -9 -6 -27 -13 -40 -10 -20 -20 -25 -55 -26 -48 -1 -54
8 -15 27 32 16 47 61 33 102 -6 16 -10 39 -10 52 0 13 -9 28 -20 34 -34 18
-41 43 -26 101 16 61 11 74 -34 83 -28 5 -30 8 -30 53 0 27 -3 58 -6 71 -5 18
0 25 28 37 23 9 40 25 48 45 14 33 73 70 111 70 12 0 31 -7 41 -17 18 -16 23
-8 12 21 -3 9 -12 16 -18 16 -19 0 -77 71 -74 89 2 9 18 21 36 27 17 5 37 15
44 22 16 16 39 1 71 -45z m117 -238 c0 -31 -16 -41 -29 -18 -6 11 -6 24 0 36
13 23 29 13 29 -18z m79 -450 c13 -14 21 -32 17 -40 -10 -28 -86 18 -86 52 0
22 44 14 69 -12z m-454 -114 c3 -5 -6 -22 -20 -38 -24 -27 -26 -27 -39 -10
-23 30 -7 51 41 56 6 0 14 -3 18 -8z m664 -75 c9 -7 30 -18 46 -23 17 -5 31
-17 33 -26 5 -25 -44 -22 -65 3 -10 11 -23 20 -30 20 -15 0 -26 17 -18 30 8
13 15 13 34 -4z m-723 -53 c-11 -11 -19 6 -11 24 8 17 8 17 12 0 3 -10 2 -21
-1 -24z m886 -75 c8 -15 13 -63 13 -133 l0 -110 33 -5 c31 -5 32 -6 18 -25
-24 -32 -19 -46 36 -97 52 -48 52 -48 33 -68 -23 -23 -28 -20 -78 43 -55 67
-71 64 -113 -28 l-35 -75 -41 0 -41 0 27 33 c40 49 86 130 83 147 -3 19 -38
28 -122 29 -64 2 -73 5 -106 34 -55 48 -60 86 -14 101 14 4 41 -9 92 -43 68
-47 139 -71 163 -56 13 8 13 55 -2 126 -10 50 -10 59 5 74 9 9 17 30 17 46 0
35 14 38 32 7z m-924 -47 c4 -29 -15 -43 -40 -30 -18 10 -24 39 -11 53 15 15
48 1 51 -23z m477 -101 c0 -19 -41 -25 -61 -10 -22 19 -17 26 24 25 26 0 37
-4 37 -15z"/>
<path d="M11646 8891 c-7 -11 3 -41 13 -41 18 0 30 24 20 37 -13 15 -26 17
-33 4z"/>
<path d="M9712 10647 c-20 -21 -21 -25 -7 -37 30 -25 72 18 43 46 -12 13 -17
11 -36 -9z"/>
<path d="M9420 10645 c0 -8 5 -15 10 -15 6 0 10 7 10 15 0 8 -4 15 -10 15 -5
0 -10 -7 -10 -15z"/>
<path d="M9611 10625 c-29 -21 -32 -25 -17 -31 10 -4 21 -2 25 4 3 6 15 10 26
9 14 -1 20 4 20 17 0 28 -15 28 -54 1z"/>
<path d="M9476 10631 c-13 -20 50 -47 70 -30 11 9 11 15 3 25 -13 16 -65 19
-73 5z"/>
<path d="M12587 10603 c-2 -5 -8 -26 -12 -48 -7 -44 -28 -73 -63 -86 -28 -11
-60 -75 -47 -93 49 -67 50 -67 34 -95 -9 -16 -25 -27 -41 -29 -37 -4 -50 -24
-46 -74 l3 -43 80 0 c68 1 85 4 111 24 27 20 40 22 95 19 35 -2 72 -8 82 -12
16 -8 17 2 17 122 0 135 -5 158 -47 200 -13 12 -23 32 -23 45 0 35 -54 77
-100 77 -22 0 -41 -3 -43 -7z"/>
<path d="M11385 10265 c-92 -37 -165 -135 -101 -135 34 0 49 -22 37 -53 -6
-16 -7 -29 -1 -32 12 -8 85 12 131 35 61 32 139 131 139 178 0 40 -115 44
-205 7z"/>
<path d="M446 9753 c-33 -43 -46 -89 -29 -106 10 -11 73 96 73 125 0 15 -2 28
-4 28 -2 0 -20 -21 -40 -47z"/>
<path d="M10822 9415 c-24 -7 -67 -16 -95 -20 -78 -11 -90 -20 -84 -62 7 -42
23 -63 47 -63 19 0 117 -44 160 -72 14 -9 36 -19 50 -23 14 -4 36 -16 49 -26
35 -28 96 -25 126 6 22 21 25 33 25 90 0 36 0 68 1 72 0 5 -16 11 -36 15 -34
7 -86 40 -127 81 -21 20 -56 21 -116 2z"/>
<path d="M1278 9252 c-4 -13 3 -22 23 -29 23 -9 28 -8 32 7 3 10 0 23 -6 29
-17 17 -44 13 -49 -7z"/>
<path d="M12592 9205 c-28 -8 -63 -22 -77 -31 -25 -16 -25 -18 -9 -43 45 -72
180 -131 262 -116 l32 6 0 83 0 84 -31 11 c-54 19 -122 21 -177 6z"/>
<path d="M1250 9181 c0 -9 33 -41 43 -41 18 0 4 28 -18 38 -14 6 -25 8 -25 3z"/>
<path d="M1677 8964 c-3 -4 -28 -6 -54 -6 -60 1 -38 -13 35 -22 61 -8 82 0 55
20 -20 15 -27 17 -36 8z"/>
<path d="M1561 8493 c-21 -9 -102 -71 -133 -104 -18 -18 -28 -40 -28 -58 0
-35 36 -91 82 -130 18 -14 63 -57 100 -94 37 -37 74 -67 82 -67 9 0 31 -8 51
-17 30 -14 38 -15 61 -3 14 8 32 26 39 40 7 14 23 34 35 45 41 37 120 173 119
205 0 8 -10 30 -22 49 -19 27 -37 38 -107 62 -47 16 -102 29 -124 29 -21 0
-53 8 -70 19 -38 23 -67 31 -85 24z"/>
<path d="M10445 8461 c-33 -15 -85 -75 -95 -112 -20 -69 -15 -82 46 -113 64
-33 134 -33 160 0 54 68 55 87 6 97 -32 7 -49 37 -54 97 -3 38 -23 47 -63 31z"/>
<path d="M554 8117 c-12 -6 -34 -21 -49 -31 -24 -18 -30 -18 -59 -6 -41 18
-142 14 -177 -7 -52 -31 -72 -70 -82 -162 -5 -47 -13 -96 -18 -108 -11 -28
-51 -39 -88 -23 -34 14 -47 39 -56 102 -3 26 -10 50 -16 53 -5 4 -9 -72 -9
-195 l0 -200 27 -11 c22 -8 32 -6 52 9 22 16 43 46 54 75 1 4 46 10 100 12
l97 5 15 -29 c8 -16 23 -32 34 -36 46 -14 55 -40 62 -173 3 -70 5 -129 3 -131
-2 -2 -13 4 -24 14 -20 18 -22 18 -63 -5 -23 -13 -50 -31 -59 -41 -9 -9 -23
-19 -29 -21 -21 -7 -15 -72 9 -103 12 -15 22 -42 22 -59 0 -20 7 -36 20 -44
28 -17 25 -33 -15 -83 -41 -51 -65 -122 -65 -190 0 -66 7 -79 42 -79 16 0 28
-3 26 -7 -13 -27 -27 -61 -32 -76 -4 -13 -12 -17 -26 -12 -14 4 -27 -1 -44
-19 -13 -14 -25 -26 -27 -26 -10 0 -1 111 10 124 33 40 -3 164 -69 239 -46 52
-47 58 -20 75 31 19 28 112 -5 174 -23 43 -24 52 -14 91 14 56 -10 145 -52
190 l-28 32 -1 -361 0 -362 38 -28 c20 -15 40 -33 44 -38 11 -15 -21 -36 -54
-36 l-28 0 0 -226 c0 -222 0 -226 23 -244 20 -16 23 -30 28 -127 4 -79 11
-116 24 -139 18 -31 18 -32 -3 -84 -12 -29 -22 -61 -22 -71 0 -14 -7 -19 -25
-19 l-25 0 0 -214 0 -214 29 -7 c16 -3 39 -15 52 -26 46 -40 86 -17 129 75 13
27 26 63 29 80 9 44 43 45 106 4 66 -44 69 -63 13 -78 -65 -18 -132 -55 -162
-90 -34 -41 -33 -58 7 -68 30 -8 32 -12 30 -47 l-3 -38 45 6 c60 9 121 40 173
90 23 23 42 39 43 37 0 -3 1 -54 2 -115 2 -91 6 -117 24 -150 19 -36 20 -43 7
-65 -7 -14 -13 -41 -14 -61 0 -24 -6 -39 -16 -43 -32 -12 -37 -7 -31 39 9 66
-8 67 -65 6 -76 -83 -101 -141 -102 -233 -1 -42 2 -79 6 -83 3 -3 25 -1 48 6
59 18 135 90 172 162 l30 60 26 -34 c44 -56 136 -143 164 -156 35 -16 44 -52
24 -92 -19 -35 -45 -40 -70 -12 -57 63 -206 83 -303 41 -56 -24 -62 -36 -38
-74 45 -68 149 -104 323 -110 68 -3 126 -8 131 -10 4 -3 24 6 44 19 21 15 50
25 71 25 48 0 66 -28 66 -105 1 -55 4 -64 39 -104 35 -41 41 -44 97 -48 32 -3
71 -9 85 -14 17 -7 35 -6 54 1 21 8 41 7 82 -5 29 -9 57 -14 62 -11 4 3 34 9
67 15 79 12 141 54 174 116 32 63 30 99 -11 168 -34 57 -56 98 -69 127 -4 8
-18 20 -31 27 -13 7 -27 23 -31 35 -10 38 -9 96 4 104 6 4 76 8 155 8 162 1
161 0 204 92 10 23 26 44 34 48 12 4 15 30 15 144 l0 138 -31 35 c-29 33 -32
34 -99 32 -46 -1 -77 -7 -95 -19 -25 -16 -28 -16 -83 6 -31 13 -66 31 -77 41
-11 10 -32 21 -47 24 -15 4 -32 13 -39 21 -18 22 -32 17 -118 -41 -45 -30 -85
-55 -90 -55 -5 0 -14 21 -20 46 -19 74 -55 135 -120 204 -34 35 -61 68 -61 72
0 14 33 61 54 79 14 12 51 18 139 23 66 3 126 11 133 17 7 6 22 30 34 54 11
23 31 54 44 68 23 25 23 29 18 163 -5 138 -5 139 -35 169 -26 26 -38 30 -99
33 -54 3 -77 0 -104 -14 -32 -18 -35 -18 -63 -1 -16 9 -38 17 -50 17 -11 0
-24 7 -29 16 -9 16 -101 54 -130 54 -7 0 -32 -15 -55 -32 -23 -18 -49 -37 -58
-43 -9 -5 -28 -18 -42 -29 -15 -10 -53 -21 -84 -25 -32 -4 -70 -15 -86 -25
-24 -16 -40 -18 -135 -12 -59 4 -132 8 -162 9 -84 4 -92 9 -133 98 -32 67 -37
87 -32 120 6 37 26 52 40 29 11 -18 31 -11 45 15 16 29 36 32 62 8 16 -15 20
-15 36 -1 9 9 37 19 62 23 59 9 82 24 163 108 78 81 85 112 40 160 l-28 29 26
21 c14 12 29 30 32 40 8 22 23 22 39 -2 8 -11 25 -25 39 -31 24 -11 53 -4 111
27 3 2 12 -13 18 -34 7 -21 23 -58 37 -81 19 -33 30 -43 44 -39 13 3 23 -2 30
-15 15 -29 70 -48 136 -48 32 0 87 -8 123 -16 109 -27 203 -17 282 30 42 25
98 117 98 162 0 24 -33 92 -69 142 -24 34 -27 65 -8 84 21 22 67 109 67 129 0
26 17 33 90 39 l65 5 32 55 c18 30 40 63 49 73 15 15 18 38 18 150 1 127 0
134 -24 164 -31 40 -39 42 -125 42 -138 -1 -166 1 -194 16 -16 8 -31 18 -33
23 -6 14 -107 62 -132 62 -17 0 -27 -8 -34 -27 -7 -21 -23 -33 -62 -48 -32
-12 -55 -27 -58 -38 -6 -23 -41 -37 -90 -37 -21 0 -48 -7 -61 -17 -37 -26
-105 -34 -184 -22 -40 6 -100 10 -133 10 -67 -1 -114 23 -114 58 0 10 -11 35
-25 55 -32 47 -34 121 -5 159 25 32 25 54 0 62 -10 3 -33 23 -49 44 -28 35
-29 40 -19 82 6 24 19 54 30 65 12 13 21 41 23 72 3 32 14 64 30 88 28 41 30
55 13 72 -15 15 -18 15 -44 -1z m29 -1216 c15 -10 35 -27 43 -39 13 -19 12
-22 -13 -42 -34 -25 -83 -89 -83 -106 0 -6 16 -15 36 -18 29 -6 35 -11 32 -29
-3 -24 -17 -26 -118 -12 -93 13 -101 35 -41 111 21 27 49 69 61 94 21 41 36
60 50 60 3 0 18 -8 33 -19z m-429 -484 c-8 -68 -18 -87 -36 -69 -10 10 -10 22
0 59 12 45 30 78 39 70 2 -2 1 -29 -3 -60z m10 -893 c16 -6 23 -44 8 -44 -12
0 -32 23 -32 37 0 15 2 15 24 7z"/>
<path d="M734 8095 c-10 -15 -28 -31 -41 -36 -19 -7 -22 -13 -17 -38 5 -23 1
-35 -18 -53 -14 -13 -28 -36 -32 -52 -4 -16 -18 -43 -32 -61 -34 -46 -32 -84
9 -116 31 -25 39 -26 154 -27 97 -1 124 2 134 14 7 8 26 22 43 31 50 25 86 64
86 93 0 31 -34 66 -74 76 -45 11 -112 61 -124 91 -5 16 -14 44 -19 63 -11 46
-44 53 -69 15z"/>
<path d="M10490 7991 c-19 -5 -26 -16 -32 -50 -7 -40 -4 -46 32 -93 43 -54 51
-97 25 -132 -23 -31 -19 -65 9 -76 35 -13 124 3 140 26 11 15 30 19 90 22 67
4 80 8 106 32 25 23 30 36 30 75 0 25 -4 55 -10 65 -11 20 -60 40 -99 40 -14
0 -39 9 -56 20 -16 11 -44 20 -61 20 -19 0 -41 10 -58 25 -15 14 -32 25 -39
25 -7 0 -21 2 -32 4 -11 3 -31 1 -45 -3z"/>
<path d="M11125 7661 c-3 -8 1 -24 10 -37 8 -13 15 -35 15 -49 0 -14 5 -25 10
-25 6 0 10 8 10 19 0 10 3 39 6 64 6 44 6 45 -20 44 -14 -1 -28 -8 -31 -16z"/>
<path d="M11028 7568 c-2 -28 -7 -42 -15 -40 -14 2 -16 -8 -7 -32 9 -22 21
-20 30 6 3 12 15 29 25 37 10 9 19 27 21 41 2 21 -2 26 -24 28 -25 3 -27 0
-30 -40z"/>
<path d="M10290 7306 c-118 -111 -117 -110 -124 -158 -4 -27 -5 -52 -2 -56 3
-4 30 -21 61 -36 78 -40 116 -33 173 31 l43 48 -40 35 c-43 39 -65 75 -56 91
4 5 4 21 1 35 -7 27 -33 32 -56 10z"/>
<path d="M10920 7000 c-36 -4 -57 -7 -47 -8 62 -6 -47 -42 -129 -42 l-44 0 0
-56 c0 -68 39 -139 81 -149 33 -8 105 -72 114 -102 3 -12 16 -25 27 -29 29 -9
65 33 73 84 9 57 27 84 65 97 l35 12 0 63 c0 54 -4 65 -23 78 -12 8 -22 25
-22 38 0 27 -2 27 -130 14z m30 -20 c0 -5 -7 -10 -15 -10 -8 0 -15 5 -15 10 0
6 7 10 15 10 8 0 15 -4 15 -10z"/>
<path d="M11420 6947 c17 -16 148 -52 157 -44 7 7 -40 27 -63 27 -9 0 -23 4
-32 9 -9 4 -30 11 -47 15 -26 6 -28 5 -15 -7z"/>
<path d="M10298 6814 c-14 -4 -18 -16 -18 -56 0 -43 5 -57 35 -94 39 -47 45
-89 19 -129 -8 -13 -14 -34 -12 -47 3 -21 9 -23 69 -26 58 -3 68 0 93 23 23
21 36 25 93 25 61 0 68 3 99 33 30 28 34 38 34 83 0 64 -20 84 -97 96 -32 5
-65 16 -74 23 -8 8 -30 15 -47 15 -18 0 -43 10 -62 26 -31 26 -93 39 -132 28z"/>
<path d="M11427 6456 c-7 -18 1 -26 25 -26 22 0 23 -13 3 -30 -8 -7 -12 -16
-9 -21 7 -12 44 -12 44 0 0 5 9 13 20 16 41 13 13 58 -41 69 -27 5 -38 3 -42
-8z"/>
<path d="M12743 6369 c-61 -30 -59 -45 15 -114 l42 -39 0 87 c0 48 -3 87 -7
87 -5 0 -27 -9 -50 -21z"/>
<path d="M12435 6341 c-54 -14 -111 -49 -148 -90 -20 -23 -37 -45 -37 -50 0
-5 16 -12 36 -16 36 -6 36 -7 31 -46 -5 -35 -3 -39 17 -39 54 0 122 34 177 89
57 57 90 124 72 142 -14 14 -111 20 -148 10z"/>
<path d="M12606 6238 c-14 -29 -28 -70 -32 -91 -10 -56 14 -155 46 -191 l27
-30 18 27 c17 27 48 36 60 17 16 -25 34 -7 46 45 7 31 16 58 21 61 4 3 8 34 8
70 0 62 -1 64 -25 64 -17 0 -40 14 -65 40 -54 55 -73 52 -104 -12z"/>
<path d="M11606 6246 c-16 -13 -46 -27 -66 -30 -56 -9 -78 -33 -94 -103 -8
-34 -23 -74 -34 -88 -12 -15 -26 -42 -32 -61 -11 -33 -10 -36 40 -91 89 -97
147 -133 216 -133 62 0 27 159 -56 253 -37 42 -37 49 -2 85 92 99 122 139 122
165 0 24 -4 27 -32 27 -19 -1 -45 -11 -62 -24z"/>
<path d="M1575 6151 c-74 -57 -96 -85 -101 -128 -5 -36 -2 -41 47 -83 29 -25
77 -67 105 -95 89 -85 98 -91 148 -114 58 -25 81 -21 101 20 9 16 20 29 25 29
5 0 11 8 14 18 3 9 25 37 49 62 49 52 87 113 87 140 0 10 -9 34 -20 53 -20 34
-49 47 -104 47 -12 0 -37 8 -56 18 -19 11 -57 22 -83 25 -27 4 -60 16 -74 27
-39 30 -81 25 -138 -19z"/>
<path d="M11816 6069 c-64 -50 -121 -176 -110 -242 14 -82 12 -80 49 -73 42 8
44 1 8 -36 -25 -26 -25 -29 -10 -46 9 -10 17 -26 17 -36 0 -16 -3 -16 -35 4
l-34 21 -31 -43 c-45 -63 -59 -78 -71 -78 -12 0 -5 29 22 82 31 61 26 76 -26
84 -87 13 -193 -24 -250 -87 -43 -48 -44 -62 -2 -74 30 -9 32 -13 29 -47 -3
-45 1 -46 88 -19 70 22 66 26 75 -70 5 -53 12 -73 33 -97 25 -27 32 -29 97
-29 49 0 84 -6 115 -20 43 -19 131 -86 138 -104 5 -13 -59 -38 -126 -50 -106
-18 -105 -17 -100 -117 3 -82 5 -89 35 -121 31 -33 32 -34 76 -22 37 9 53 8
89 -5 48 -17 108 -55 152 -96 29 -27 29 -28 11 -48 -28 -31 -49 -24 -92 26
l-39 46 -53 -7 c-54 -7 -90 -36 -130 -101 -9 -15 -31 -31 -49 -38 -29 -9 -37
-19 -53 -66 -24 -72 -24 -101 3 -135 l22 -28 110 8 c126 9 175 8 208 -4 22 -8
23 -14 23 -107 1 -64 6 -108 15 -124 24 -44 34 -210 12 -218 -7 -2 -43 26 -80
62 -37 37 -74 71 -82 76 -25 16 -73 11 -113 -10 -30 -16 -56 -20 -145 -20
l-109 0 -31 48 c-49 76 -49 79 -3 98 23 9 41 18 41 20 0 3 -10 18 -22 35 l-23
31 28 20 c15 11 27 23 27 28 0 10 -60 39 -124 60 -42 14 -50 21 -62 56 -12 35
-12 44 6 89 10 28 24 69 30 93 6 23 12 42 14 42 2 0 17 -7 32 -15 44 -23 91
-19 119 10 22 21 25 33 25 90 0 36 0 68 0 73 1 4 -15 10 -34 14 -37 8 -87 38
-125 77 -24 24 -57 25 -129 5 -18 -5 -31 3 -67 42 -25 27 -48 60 -51 74 -3 14
-7 31 -10 38 -6 21 -107 15 -137 -8 -14 -11 -29 -20 -35 -20 -12 0 -22 -58
-22 -132 0 -51 -3 -60 -26 -75 -36 -23 -57 -7 -66 51 -7 52 -33 81 -83 92 -16
4 -43 18 -59 31 -30 25 -64 25 -93 1 -20 -16 -15 -83 8 -128 l22 -41 -23 -50
c-43 -90 -90 -129 -159 -129 -35 0 -41 -3 -47 -25 -4 -18 1 -37 20 -65 14 -22
26 -43 26 -48 0 -5 11 -19 25 -32 14 -13 25 -29 25 -35 0 -7 9 -24 20 -38 17
-21 20 -39 18 -89 -1 -49 3 -74 21 -111 27 -56 24 -107 -9 -142 -26 -28 -25
-43 6 -76 22 -23 24 -30 15 -48 -7 -12 -15 -21 -20 -21 -15 0 -32 -56 -26 -81
4 -15 20 -31 43 -42 54 -25 80 -42 106 -66 12 -11 27 -21 33 -21 6 0 22 -17
37 -38 19 -28 26 -51 26 -84 0 -66 14 -97 54 -113 22 -10 37 -25 44 -45 6 -17
26 -39 46 -50 19 -12 37 -27 40 -35 3 -8 14 -15 25 -15 11 0 23 -5 27 -11 3
-6 17 -8 31 -4 51 13 83 -21 51 -54 -11 -11 -5 -12 28 -6 39 6 52 3 104 -27
33 -18 42 -20 76 -13 34 6 35 7 19 25 -19 21 -13 40 14 40 20 0 71 72 71 100
0 18 -28 76 -62 130 -9 14 -19 45 -22 69 -4 24 -16 55 -26 69 -14 17 -20 40
-20 72 0 70 -21 91 -105 105 -87 14 -98 29 -60 79 24 32 33 37 54 31 14 -3 37
-7 51 -8 37 -3 100 -69 155 -165 31 -53 65 -69 118 -55 27 8 77 10 128 6 46
-3 114 -1 150 5 66 10 150 -1 195 -26 12 -7 25 -7 36 -1 10 6 22 7 27 4 16 -9
131 -212 131 -230 0 -2 -28 -19 -62 -36 -71 -35 -104 -62 -124 -101 -15 -29
-13 -32 30 -42 27 -7 28 -9 22 -47 l-6 -40 37 7 c77 13 133 45 188 108 30 33
57 57 61 54 3 -4 -1 -35 -10 -70 -9 -36 -16 -81 -16 -102 0 -41 5 -40 -67 -20
-21 6 -23 3 -23 -35 0 -40 -1 -41 -35 -41 -19 0 -35 -5 -35 -10 0 -24 30 -78
70 -128 47 -60 65 -106 47 -120 -7 -5 -34 -17 -61 -27 -51 -18 -136 -93 -136
-118 0 -8 15 -18 33 -24 29 -9 32 -12 30 -47 l-3 -39 41 7 c67 11 128 46 177
102 25 30 52 54 59 54 16 0 16 0 -3 -68 -21 -72 -14 -157 18 -213 28 -52 44
-58 59 -25 14 29 40 34 60 10 11 -14 9 -19 -16 -38 -17 -11 -53 -40 -81 -62
-82 -67 -86 -68 -141 -38 -48 27 -88 75 -99 120 -9 36 -43 31 -77 -11 -15 -19
-32 -46 -37 -61 -9 -22 -14 -25 -38 -20 -45 11 -77 40 -80 74 l-3 32 -66 -35
c-62 -33 -113 -45 -113 -27 0 4 18 26 41 47 51 50 86 118 91 175 3 41 1 45
-17 41 -48 -10 -58 -6 -68 24 -5 17 -11 32 -14 34 -7 9 -95 -84 -114 -121 -10
-20 -21 -56 -24 -80 -11 -78 -15 -89 -32 -86 -9 2 -22 26 -33 61 -27 88 -93
160 -167 182 -19 5 -22 2 -25 -32 -3 -36 -5 -38 -41 -41 -34 -3 -37 -6 -31
-25 22 -75 121 -185 187 -206 20 -7 37 -16 37 -20 0 -5 -35 -11 -77 -14 -71
-5 -81 -3 -114 19 -19 13 -42 24 -50 24 -17 -1 -60 -45 -79 -83 -8 -15 -33
-45 -56 -67 -79 -72 -90 -110 -58 -191 14 -33 15 -58 10 -132 -4 -51 -8 -112
-9 -137 l-2 -45 -44 0 c-63 0 -86 33 -86 122 0 36 3 67 8 70 15 9 6 20 -35 38
-24 10 -56 18 -73 18 -58 -2 -137 -20 -145 -32 -8 -14 -84 -7 -105 9 -21 15
-94 18 -106 4 -14 -17 -40 -19 -36 -2 1 7 -21 16 -58 23 -33 6 -73 16 -88 23
-15 6 -45 11 -67 10 -35 -1 -38 -4 -37 -27 2 -19 10 -27 37 -34 31 -8 33 -10
17 -22 -23 -17 -22 -29 3 -22 17 4 20 2 15 -13 -3 -10 -1 -21 4 -24 6 -4 8
-13 4 -21 -3 -9 1 -15 8 -15 20 0 128 45 142 59 16 16 24 14 30 -8 5 -22 -39
-58 -103 -85 -19 -8 -38 -17 -41 -21 -10 -9 14 -55 29 -55 7 0 10 -5 7 -10 -3
-5 -2 -10 4 -10 5 0 13 5 16 10 10 16 35 12 35 -6 0 -14 2 -14 16 -3 12 10 15
24 10 56 -3 23 -1 45 4 48 15 9 60 -25 60 -46 0 -26 15 -24 28 4 11 22 11 22
11 -5 1 -39 20 -45 27 -9 8 37 24 41 24 7 0 -13 6 -26 14 -29 7 -3 16 -26 18
-51 3 -25 12 -53 19 -62 8 -9 21 -35 29 -58 l16 -41 86 -6 c62 -4 96 -12 123
-27 20 -12 49 -22 64 -22 50 0 96 72 107 165 10 82 27 93 91 63 28 -14 66
-107 66 -162 0 -60 -35 -134 -68 -142 -34 -9 -59 -62 -46 -97 11 -27 29 -37
71 -37 16 0 41 -5 55 -12 22 -10 31 -9 56 6 35 20 50 13 69 -34 16 -38 0 -60
-41 -60 -31 0 -57 -23 -95 -82 -26 -40 -58 -62 -79 -54 -20 7 -29 63 -15 97
17 41 5 48 -38 23 -45 -26 -83 -36 -99 -26 -7 4 -13 34 -15 67 -3 55 -5 59
-32 66 -38 11 -114 0 -132 -18 -8 -8 -14 -33 -14 -55 0 -34 -7 -47 -45 -86
-25 -25 -45 -54 -45 -66 0 -11 -12 -50 -27 -88 -40 -96 -66 -93 -97 13 -10 38
-23 59 -38 67 -13 7 -35 21 -49 33 l-26 21 -41 -23 c-34 -20 -45 -22 -61 -12
-16 10 -22 9 -36 -7 -10 -11 -27 -22 -38 -26 -11 -4 -35 -21 -54 -39 -38 -37
-42 -70 -13 -108 13 -16 20 -40 20 -67 0 -30 7 -50 25 -72 25 -29 34 -81 16
-92 -5 -3 -7 -34 -4 -69 4 -45 12 -70 29 -90 13 -16 24 -33 24 -37 0 -5 18
-14 39 -20 62 -17 71 -63 14 -77 -26 -6 -39 -15 -41 -28 -7 -51 -13 -65 -27
-65 -11 0 -15 12 -15 45 0 59 -29 91 -94 100 -25 4 -57 15 -69 25 -13 10 -40
22 -61 25 -20 4 -51 19 -67 32 -34 29 -92 39 -131 24 -26 -10 -28 -15 -28 -62
0 -42 5 -56 25 -75 46 -43 26 -58 -36 -27 -23 12 -59 17 -114 18 -66 0 -89 -4
-130 -25 -27 -14 -51 -30 -52 -36 -6 -19 69 -86 125 -112 49 -22 64 -24 140
-19 73 4 88 2 98 -11 19 -26 130 -20 160 9 25 23 95 36 138 25 24 -6 26 -10
20 -44 -5 -33 -2 -39 24 -59 19 -14 32 -33 34 -50 l3 -28 177 -3 c173 -2 177
-2 189 19 17 33 5 133 -19 164 -26 33 -34 72 -24 110 8 29 10 30 69 30 67 0
92 14 113 66 7 16 17 29 22 29 5 0 21 9 35 20 29 23 95 27 111 7 6 -6 14 -26
17 -42 4 -17 17 -45 28 -64 l20 -33 -22 -44 c-28 -58 -27 -98 4 -138 14 -18
25 -38 25 -44 0 -6 7 -15 16 -20 8 -5 21 -20 28 -33 l12 -24 494 -1 c272 -1
541 1 597 5 113 7 114 7 152 87 11 22 26 46 35 53 10 9 16 30 16 60 0 56 25
147 43 158 7 4 28 34 46 67 27 48 32 65 26 95 -4 20 -14 44 -23 54 -13 15 -14
22 -4 37 13 22 7 46 -14 54 -26 10 -15 42 25 68 32 21 46 24 78 19 21 -4 47
-12 58 -18 11 -6 37 -10 57 -8 73 4 68 -35 68 591 0 424 -3 564 -12 564 -6 0
-20 7 -29 16 -17 16 -25 12 -119 -51 -85 -57 -110 -69 -153 -73 -29 -3 -65
-14 -80 -24 -26 -18 -38 -20 -130 -13 -56 3 -127 8 -158 9 -93 5 -105 11 -123
61 -8 25 -24 57 -35 72 -29 36 -28 100 3 145 16 25 22 44 18 63 -4 26 -3 28
19 22 13 -4 79 -9 146 -11 111 -4 123 -2 139 15 31 35 112 69 137 60 19 -8 65
-48 172 -151 12 -11 25 -20 30 -20 6 0 23 -7 40 -16 38 -20 71 -11 89 25 9 16
22 31 31 34 12 5 15 30 15 154 l0 148 -47 22 c-27 12 -67 24 -90 26 -23 3 -56
16 -73 29 -30 23 -30 24 -24 95 7 89 -11 160 -61 232 -58 84 -43 95 41 30 63
-48 112 -68 172 -69 24 0 52 -5 63 -10 18 -10 19 -7 19 83 0 89 -1 94 -24 105
-46 21 -98 24 -172 12 -41 -7 -77 -10 -80 -7 -3 3 5 14 17 24 34 26 120 115
146 150 13 18 35 33 54 37 60 12 59 9 59 242 0 206 -1 214 -21 224 -11 7 -27
27 -35 47 -8 19 -32 52 -52 73 -43 44 -62 73 -62 95 0 9 -8 18 -17 22 -55 19
-68 75 -36 154 15 39 15 43 -2 75 -11 21 -15 41 -11 56 4 13 11 67 15 120 6
77 12 103 28 120 22 26 53 99 53 127 0 38 -29 54 -85 47 l-52 -6 -27 63 c-32
77 -80 137 -108 137 -11 0 -31 11 -44 25 -19 20 -33 25 -73 25 -68 0 -81 7
-81 41 0 16 2 29 4 29 2 0 35 -12 72 -26 81 -31 148 -29 212 4 22 11 58 24 79
28 22 4 57 23 84 46 51 42 78 48 97 18 7 -11 23 -20 37 -20 l25 0 0 363 -1
362 -25 -28 c-28 -33 -50 -30 -60 8 -16 63 22 102 63 64 l23 -22 0 41 c0 30
-5 44 -19 51 -10 6 -21 21 -25 35 -7 30 -37 49 -101 65 -62 15 -86 37 -121
110 -38 79 -85 122 -138 128 -41 5 -45 3 -94 -46 -28 -28 -60 -51 -70 -51 -11
0 -22 -7 -25 -15 -9 -23 -87 -55 -133 -55 -50 0 -65 -15 -69 -70 -2 -21 -6
-44 -10 -49 -3 -6 -44 -10 -91 -10 l-85 0 33 38 c68 74 96 124 103 185 l8 59
-29 -7 c-16 -4 -33 -8 -39 -9 -5 -1 -16 13 -24 31 -17 38 -20 38 -55 11z m417
-374 c20 -8 45 -25 56 -36 14 -15 27 -20 42 -16 26 7 109 -37 109 -58 0 -7
-11 -20 -24 -28 -27 -18 -117 -17 -139 1 -11 10 -16 7 -25 -14 -7 -14 -12 -31
-12 -39 0 -8 -18 -33 -39 -54 -21 -21 -42 -53 -46 -69 -3 -17 -13 -36 -21 -43
-21 -17 -17 -37 17 -80 42 -53 82 -60 154 -25 62 29 126 34 145 11 7 -8 27
-17 46 -21 19 -3 45 -15 58 -25 13 -10 35 -20 47 -21 20 -3 25 2 29 32 7 46
37 47 63 3 l19 -32 -51 -51 c-59 -58 -87 -64 -102 -20 -13 35 -16 36 -49 13
-13 -9 -39 -19 -58 -22 -30 -5 -39 -14 -67 -66 -18 -32 -37 -61 -42 -62 -6 -2
-27 17 -47 42 -36 44 -99 85 -130 85 -9 0 -16 -11 -18 -27 -5 -41 -32 -40 -72
3 -38 42 -46 68 -46 159 0 49 -5 68 -21 90 -17 21 -22 39 -20 84 1 46 -3 63
-24 91 -14 19 -22 37 -18 41 5 3 39 11 77 17 85 14 97 24 68 55 -28 29 -28 30
6 65 32 35 79 41 135 17z m285 -32 c-2 -10 -10 -18 -18 -18 -8 0 -16 8 -18 18
-2 12 3 17 18 17 15 0 20 -5 18 -17z m-1324 -900 c11 -26 -13 -42 -29 -19 -8
10 -12 23 -9 27 9 15 31 10 38 -8z m1012 -260 c20 -13 32 -14 60 -5 30 9 36 8
44 -8 16 -29 12 -54 -11 -74 -18 -15 -21 -26 -16 -62 4 -44 -8 -60 -20 -27
-11 29 -57 62 -86 63 -52 0 -67 16 -67 69 0 26 3 51 7 54 12 13 64 7 89 -10z
m-1406 -133 c12 -16 18 -34 15 -40 -13 -22 -105 -3 -105 21 0 19 31 49 51 49
10 0 27 -13 39 -30z m1298 -528 c17 -11 34 -74 23 -85 -5 -5 -19 -7 -32 -5
-19 2 -25 10 -27 36 -5 54 7 72 36 54z m562 -532 c23 -23 24 -26 9 -71 -26
-77 -54 -70 -64 16 -10 76 12 98 55 55z m-1100 -1120 c0 -11 -7 -20 -15 -20
-15 0 -21 21 -8 33 12 13 23 7 23 -13z m36 -191 l25 -51 -20 -22 c-12 -12 -21
-33 -21 -45 0 -26 -60 -91 -84 -91 -20 0 -21 28 -1 50 8 9 19 41 25 71 10 51
39 139 46 139 2 0 15 -23 30 -51z m-831 -137 c-3 -3 -11 0 -18 7 -9 10 -8 11
6 5 10 -3 15 -9 12 -12z m799 -181 c3 -4 66 -10 141 -13 80 -3 141 -10 149
-17 15 -12 11 -38 -11 -81 -19 -36 -16 -73 8 -104 11 -14 22 -38 24 -52 1 -14
12 -32 24 -40 11 -8 21 -23 21 -33 0 -14 -11 -19 -52 -24 -63 -8 -256 2 -280
14 -9 5 -22 26 -28 46 -7 21 -21 56 -31 79 -25 54 -24 108 2 146 18 25 20 34
10 54 -6 14 -11 27 -11 29 0 9 29 5 34 -4z m50 -885 c19 -8 52 -30 74 -50 22
-20 49 -36 61 -36 26 0 27 -16 1 -57 -21 -35 -20 -64 3 -130 8 -23 11 -47 7
-53 -4 -7 -35 -15 -68 -19 -36 -4 -69 -15 -81 -25 -18 -16 -33 -18 -123 -12
-57 3 -122 8 -146 12 l-42 6 -21 72 c-14 44 -37 91 -61 123 -57 75 -38 85 33
19 45 -42 74 -60 116 -72 62 -18 163 -15 188 6 13 11 12 16 -5 37 -27 34 -25
51 5 65 14 6 25 14 25 18 0 4 -18 19 -40 34 -46 30 -49 39 -18 60 28 20 49 20
92 2z m-360 -50 c-28 -22 -54 -26 -54 -10 0 7 15 17 33 22 39 11 47 6 21 -12z
m-566 -322 c3 -34 -11 -60 -27 -50 -12 8 -15 68 -4 80 13 13 28 -1 31 -30z
m-700 -170 c-4 -44 -29 -65 -55 -48 -31 19 -27 48 9 66 47 24 50 22 46 -18z"/>
<path d="M11150 5375 c-25 -8 -78 -20 -117 -26 -88 -14 -97 -23 -80 -74 10
-29 21 -41 43 -48 26 -8 93 -39 179 -84 88 -46 108 -53 148 -53 62 0 74 18 79
115 l3 79 -37 7 c-23 3 -58 23 -94 52 -62 52 -60 51 -124 32z"/>
<path d="M38 4992 l-38 -3 0 -214 c0 -181 2 -214 14 -209 8 3 45 -13 83 -36
55 -33 76 -40 108 -38 36 3 40 6 43 32 2 16 -8 65 -22 110 -13 44 -28 99 -32
120 -4 22 -18 55 -31 75 -21 30 -24 44 -19 86 3 28 2 55 -2 61 -9 14 -55 21
-104 16z"/>
<path d="M12526 4805 c-27 -7 -58 -23 -69 -34 -19 -19 -19 -21 -3 -46 24 -37
89 -81 148 -101 52 -17 140 -15 173 3 14 8 14 12 -5 35 -26 34 -25 46 5 60 39
17 30 33 -33 61 -72 33 -151 41 -216 22z"/>
<path d="M33 4438 l-33 -11 0 -320 c0 -319 0 -320 20 -302 11 10 34 40 51 66
17 27 37 49 45 49 19 0 18 -9 -8 -66 -23 -53 -28 -136 -14 -236 8 -51 7 -57
-13 -70 -29 -18 -26 -36 14 -83 30 -36 39 -40 79 -40 31 0 54 7 76 23 17 13
56 27 87 32 31 5 63 16 72 25 33 31 79 65 89 65 5 0 17 -11 26 -25 9 -14 26
-25 37 -25 11 0 33 -7 49 -15 26 -13 32 -13 72 5 24 11 58 20 75 20 21 0 43
10 63 28 28 25 30 30 20 62 -11 38 -5 90 11 90 6 0 21 12 36 26 14 14 36 29
49 34 13 5 29 21 35 34 10 20 8 31 -11 61 -17 27 -21 44 -16 70 l7 35 -49 0
c-35 0 -57 -6 -75 -21 -16 -12 -44 -21 -69 -22 -34 -2 -44 2 -53 20 -21 41
-48 63 -89 73 -86 22 -103 35 -138 107 -18 37 -41 79 -51 93 -9 13 -17 37 -17
52 0 17 -5 28 -13 28 -8 0 -33 23 -56 50 -23 28 -48 50 -55 50 -18 0 -44 -41
-66 -103 -24 -70 -75 -161 -92 -165 -15 -3 -58 65 -58 91 0 9 9 18 19 22 28 9
100 90 121 138 18 39 18 43 3 55 -20 14 -134 14 -180 0z m198 -545 c17 -19
146 -83 170 -83 40 0 50 -11 43 -49 -10 -54 -22 -71 -51 -71 -47 0 -108 50
-142 115 -17 33 -38 70 -47 83 -14 19 -14 22 -1 22 8 0 21 -7 28 -17z m486
-35 c29 -27 28 -36 -1 -72 -29 -35 -51 -30 -61 14 -5 21 -2 39 9 55 20 30 24
31 53 3z"/>
<path d="M12751 4214 c-35 -29 -41 -75 -15 -112 14 -21 14 -26 -2 -67 -9 -24
-14 -55 -10 -67 3 -13 1 -46 -5 -74 -14 -64 -7 -97 26 -112 54 -25 55 -20 55
229 0 133 -4 229 -9 229 -5 0 -23 -12 -40 -26z"/>
<path d="M1730 3715 c-8 -8 -39 -36 -68 -63 -53 -49 -53 -50 -50 -103 3 -53 4
-55 53 -85 45 -29 58 -39 90 -74 29 -31 111 -100 120 -100 6 0 23 -7 40 -16
39 -20 71 -11 90 26 9 17 20 30 25 30 5 0 11 8 14 18 4 9 23 36 45 58 21 23
50 63 64 88 l26 47 -21 44 c-21 43 -42 55 -102 55 -11 0 -34 7 -51 16 -16 9
-54 20 -82 25 -29 4 -65 17 -79 28 -31 25 -93 28 -114 6z"/>
<path d="M1443 3508 c-9 -10 -6 -18 13 -35 21 -19 24 -19 24 -4 0 9 -6 25 -13
35 -11 15 -15 15 -24 4z"/>
<path d="M922 3301 c-18 -22 -32 -44 -32 -50 0 -6 -13 -26 -30 -44 -16 -19
-30 -43 -30 -54 0 -10 -13 -34 -28 -53 -16 -19 -34 -45 -41 -58 -10 -19 -15
-21 -27 -11 -20 16 -17 65 5 97 15 20 21 47 23 104 1 42 0 80 -4 83 -3 3 -21
-3 -39 -15 -51 -30 -96 -50 -116 -50 -10 0 -36 11 -58 25 -22 13 -49 25 -61
25 -22 0 -74 -49 -95 -92 -19 -36 -83 -78 -120 -78 -22 0 -32 6 -41 25 -6 14
-31 41 -56 60 l-46 35 -24 -22 c-13 -13 -34 -45 -46 -73 -13 -27 -30 -56 -39
-64 -14 -11 -17 -35 -17 -148 l0 -135 38 4 c62 8 89 -7 97 -53 5 -30 13 -43
32 -50 35 -13 73 -11 127 7 38 13 51 24 62 51 8 19 12 39 8 44 -3 6 -6 51 -5
100 1 66 -2 90 -11 93 -68 18 -73 21 -73 51 0 26 4 30 31 33 26 3 37 -3 61
-32 16 -19 45 -42 65 -50 42 -18 88 -72 88 -104 0 -11 5 -24 10 -27 6 -3 10
-20 10 -36 0 -22 11 -40 40 -67 39 -37 39 -37 46 -132 3 -52 10 -109 15 -126
18 -58 -6 -122 -65 -175 -51 -46 -82 -100 -108 -189 -7 -25 -17 -45 -23 -45
-5 0 -26 30 -45 66 -19 37 -40 73 -46 80 -6 8 -14 28 -18 44 -4 17 -21 51 -38
78 -26 41 -29 53 -24 90 11 70 4 77 -73 77 -36 0 -73 -5 -81 -10 -11 -6 -15
-30 -16 -87 -1 -91 -27 -154 -75 -181 -27 -16 -29 -21 -29 -74 l0 -58 38 0
c21 0 48 -7 61 -16 22 -16 25 -16 52 0 28 16 28 16 78 -28 27 -24 63 -52 80
-62 46 -27 36 -47 -29 -57 -110 -15 -213 -90 -215 -156 0 -23 -4 -26 -33 -25
l-32 2 0 -144 0 -144 25 6 c37 9 143 -64 145 -100 0 -5 -25 -6 -57 -3 -31 3
-69 3 -85 0 l-28 -5 0 -327 c0 -325 0 -326 22 -336 21 -10 25 -15 47 -65 6
-14 15 -32 20 -40 5 -8 19 -36 31 -63 18 -39 20 -50 9 -63 -7 -8 -14 -44 -17
-80 -3 -56 -1 -68 20 -94 70 -90 70 -90 58 -105 -6 -8 -32 -26 -56 -40 -42
-25 -98 -91 -89 -105 3 -4 18 -10 35 -13 25 -6 30 -11 30 -37 0 -30 0 -30 55
-30 31 0 61 4 68 10 7 5 36 30 65 55 29 25 58 43 64 39 6 -4 8 -27 6 -55 l-5
-49 398 0 c220 0 399 3 399 8 0 4 -18 27 -40 50 -34 37 -40 51 -40 87 0 66 10
70 180 70 126 0 151 3 167 17 18 17 19 16 15 -17 -5 -40 -41 -75 -78 -75 -12
0 -34 -4 -48 -10 -23 -8 -26 -15 -26 -58 0 -26 5 -53 12 -60 9 -9 134 -12 500
-12 l488 0 30 53 c40 69 39 84 -6 93 -36 7 -131 0 -170 -11 -20 -6 -22 -2 -28
49 -8 62 -37 106 -87 132 -24 12 -29 21 -29 52 0 66 50 107 121 100 26 -2 35
-8 37 -26 3 -19 -1 -22 -33 -22 -33 0 -36 -2 -29 -22 15 -51 45 -96 89 -137
53 -49 99 -71 150 -71 l35 0 0 59 c0 43 4 60 15 64 19 8 21 2 30 -62 l7 -53
41 6 c29 5 58 21 97 54 92 79 87 76 119 62 25 -10 33 -9 56 6 27 17 27 19 22
105 -6 89 -18 129 -40 129 -7 0 -19 15 -28 32 -10 21 -23 32 -39 33 -13 1 -26
7 -28 14 -2 6 -29 32 -60 57 l-56 46 -16 -22 c-17 -22 -17 -22 -48 34 -36 63
-40 88 -14 84 22 -4 28 34 8 51 -26 21 -174 23 -218 3 -42 -19 -45 -27 -23
-52 9 -9 21 -42 27 -73 11 -53 11 -57 -15 -96 -33 -49 -51 -52 -73 -8 -39 75
-163 162 -239 168 -39 3 -40 3 -38 -28 2 -23 -2 -32 -16 -36 -14 -3 -17 -11
-13 -36 6 -40 -13 -41 -67 -3 -50 34 -52 41 -45 108 6 44 10 54 25 54 11 0 19
7 19 15 0 9 11 21 25 27 28 13 33 39 10 58 -20 17 -19 33 5 48 30 19 25 29
-32 59 -44 22 -66 27 -128 27 -98 0 -177 -32 -182 -72 -2 -22 -9 -28 -35 -30
-17 -2 -37 -10 -43 -18 -19 -22 -32 -17 -29 14 4 39 -7 52 -46 52 -55 0 -85
16 -85 45 0 29 0 29 47 10 19 -8 51 -15 71 -15 l35 0 -6 73 c-3 39 -9 82 -12
95 -9 29 17 30 45 2 16 -16 20 -33 20 -85 0 -78 9 -85 73 -57 95 42 167 138
167 222 l0 40 -40 -6 -40 -7 0 38 c0 25 10 52 31 83 17 25 35 56 39 68 5 12
31 36 59 54 30 20 52 42 56 58 3 14 15 36 25 49 38 48 -5 151 -110 266 -55 59
-60 69 -60 110 0 73 4 74 243 76 l87 1 28 51 c15 28 37 64 50 80 22 27 23 35
20 161 l-3 133 -34 33 c-31 29 -40 32 -95 32 -43 0 -69 -6 -90 -19 -20 -14
-36 -17 -55 -11 -44 13 -85 33 -114 57 -16 13 -37 23 -47 23 -9 0 -23 7 -30
15 -15 19 -56 20 -67 2 -11 -20 -83 -65 -115 -72 -20 -5 -29 -2 -37 13 -19 35
-111 40 -111 6 0 -8 -19 -33 -42 -54 -50 -46 -87 -51 -178 -24 -35 10 -71 14
-98 10 -54 -7 -75 3 -96 48 -24 51 -20 77 19 120 27 30 35 49 35 77 0 52 19
64 105 64 67 0 74 2 109 33 20 17 46 32 56 32 11 0 20 4 20 9 0 4 11 20 25 35
14 15 25 34 25 42 0 29 -43 74 -77 80 -18 3 -33 10 -33 14 0 4 -14 13 -30 20
-31 13 -70 58 -70 82 -1 19 -36 58 -52 58 -8 0 -29 -18 -46 -39z m-478 -1369
c3 -5 -7 -33 -21 -63 -18 -37 -28 -76 -31 -125 -4 -62 -1 -80 22 -129 14 -32
26 -64 26 -72 0 -9 12 -35 28 -58 46 -73 94 -83 179 -35 29 16 65 30 81 30 17
0 48 16 81 40 60 45 80 49 99 20 7 -11 21 -20 33 -20 11 0 34 -7 51 -16 24
-12 36 -14 55 -5 13 6 30 11 37 11 23 0 91 -61 88 -79 -2 -9 -4 -32 -5 -51 -2
-34 -3 -35 -42 -35 -37 0 -40 -2 -38 -27 l2 -26 -36 24 c-61 41 -103 31 -156
-36 -64 -80 -66 -82 -96 -75 -21 4 -32 0 -51 -20 -13 -14 -30 -25 -38 -25 -9
0 -57 21 -109 46 -93 46 -93 46 -93 84 0 35 -4 40 -72 86 -70 47 -73 51 -80
96 -3 26 -16 60 -27 74 -15 19 -21 41 -21 78 0 46 -3 53 -30 68 -40 23 -38 40
9 77 22 18 60 63 85 101 44 67 59 80 70 62z m113 -41 c63 -46 96 -60 170 -72
48 -8 80 -8 106 -1 39 11 50 0 18 -17 -10 -6 -23 -30 -30 -55 -16 -64 -29 -66
-121 -15 -19 10 -49 19 -66 19 -35 0 -45 10 -97 97 -52 85 -48 93 20 44z m531
-33 c16 -16 15 -60 -2 -83 -20 -28 -46 -3 -46 45 0 50 20 66 48 38z m-768
-531 c0 -19 -10 -27 -26 -20 -21 8 -17 33 6 33 11 0 20 -6 20 -13z m408 -264
c19 -45 49 -83 68 -87 12 -3 66 -2 120 4 55 5 103 5 107 1 4 -4 3 -19 -2 -34
-10 -27 0 -37 39 -37 23 0 29 -17 19 -52 -7 -26 -5 -28 22 -28 16 0 52 9 81
20 29 11 58 20 65 20 18 0 53 -64 53 -99 0 -37 -38 -81 -69 -81 -31 0 -99 30
-105 46 -3 8 -11 14 -19 14 -7 0 -30 9 -52 20 -22 11 -43 20 -47 20 -5 0 -31
-18 -59 -40 -28 -22 -55 -40 -61 -40 -6 0 -23 -11 -40 -25 -21 -18 -42 -25
-71 -25 -24 0 -64 -11 -91 -25 -61 -29 -86 -21 -86 29 0 40 12 51 63 60 45 8
77 37 77 69 -1 12 -9 40 -20 62 -11 22 -19 45 -20 51 0 16 -24 24 -66 24 -24
0 -41 -7 -56 -25 -25 -29 -54 -32 -87 -6 -32 24 -24 53 16 62 17 3 46 18 63
33 17 14 36 26 42 26 6 0 26 14 45 30 38 34 60 38 71 13z"/>
<path d="M1520 3280 c0 -28 -32 -41 -80 -34 -39 6 -40 6 -40 -23 0 -17 -7 -36
-15 -43 -9 -8 -12 -17 -7 -24 14 -17 24 -78 12 -71 -6 3 -10 1 -10 -4 0 -10
11 -13 65 -15 33 -2 61 -23 75 -56 7 -16 14 -30 16 -30 19 0 87 37 95 51 11
22 -4 59 -24 59 -21 0 -120 50 -113 57 3 4 39 9 79 12 l72 6 -2 30 c-1 21 -14
41 -44 68 -46 41 -79 48 -79 17z"/>
<path d="M10758 3186 c-30 -31 -35 -46 -17 -46 19 0 60 50 52 64 -6 8 -16 3
-35 -18z"/>
<path d="M10831 3111 c-7 -5 -22 -6 -32 -4 -12 4 -19 0 -19 -10 0 -8 -7 -18
-15 -21 -13 -5 -14 -10 -5 -27 6 -11 9 -27 6 -35 -3 -8 1 -25 9 -37 9 -15 11
-27 5 -37 -5 -8 -9 -28 -9 -45 1 -17 3 -22 6 -12 6 24 33 22 33 -3 0 -11 5
-20 10 -20 6 0 10 6 10 14 0 8 -4 18 -10 21 -5 3 -10 19 -10 35 0 16 -5 32
-11 35 -13 9 -2 86 15 100 12 9 40 55 34 55 -2 0 -9 -4 -17 -9z"/>
<path d="M11070 3068 c1 -28 60 -102 60 -75 0 17 -45 97 -55 97 -3 0 -5 -10
-5 -22z"/>
<path d="M11561 3044 c-12 -14 -12 -17 0 -25 18 -11 29 -11 29 0 0 5 3 16 6
25 8 21 -16 20 -35 0z"/>
<path d="M11620 2990 c19 -13 30 -13 30 0 0 6 -10 10 -22 10 -19 0 -20 -2 -8
-10z"/>
<path d="M11176 2871 c-3 -5 1 -14 9 -21 13 -10 15 -9 15 9 0 21 -14 28 -24
12z"/>
<path d="M11457 2863 c-15 -15 -5 -44 18 -55 30 -13 31 -13 40 30 6 30 5 32
-23 32 -16 0 -32 -3 -35 -7z"/>
<path d="M11580 2826 c0 -26 6 -38 21 -46 28 -16 30 -11 15 35 -18 51 -36 57
-36 11z"/>
<path d="M11697 2809 c4 -13 9 -17 15 -11 11 11 3 32 -12 32 -4 0 -6 -9 -3
-21z"/>
<path d="M11020 2600 c-8 -15 -8 -20 3 -20 14 0 37 19 37 32 0 16 -30 7 -40
-12z"/>
<path d="M11066 2584 c-11 -28 -6 -39 9 -20 8 11 15 23 15 28 0 14 -18 9 -24
-8z"/>
<path d="M10975 2520 c-4 -6 -1 -10 5 -10 6 0 15 -11 20 -25 10 -27 24 -32 36
-13 4 6 2 14 -5 16 -8 3 -22 13 -32 23 -10 10 -21 14 -24 9z"/>
<path d="M10930 2398 c0 -7 12 -18 26 -25 23 -11 25 -10 22 10 -3 24 -48 38
-48 15z"/>
<path d="M7173 2258 c-11 -13 -26 -40 -33 -61 -7 -22 -18 -51 -26 -65 -8 -15
-14 -39 -14 -54 0 -42 -10 -58 -51 -79 -46 -23 -54 -46 -46 -131 6 -70 42
-118 86 -118 26 0 97 59 128 107 9 13 32 27 53 33 80 21 129 51 174 104 25 29
47 63 48 76 3 21 -2 25 -33 30 -28 5 -55 26 -123 93 -96 95 -124 107 -163 65z"/>
<path d="M5177 2152 c-15 -15 -27 -35 -27 -43 0 -7 -12 -36 -25 -64 -14 -27
-25 -67 -25 -88 0 -35 -3 -40 -39 -55 -52 -22 -62 -46 -54 -129 7 -82 36 -123
88 -123 25 0 43 12 89 60 32 33 66 60 75 60 18 0 72 -48 104 -90 26 -37 21
-66 -21 -113 -22 -23 -47 -66 -57 -94 l-19 -53 23 -24 c21 -23 22 -27 10 -61
-13 -35 -16 -37 -49 -31 -19 3 -43 15 -52 26 -14 18 -24 20 -65 14 -38 -5 -52
-3 -62 10 -28 33 -82 18 -169 -48 -69 -52 -118 -60 -162 -26 -87 68 -172 -43
-155 -201 6 -47 11 -58 31 -68 28 -12 29 -18 9 -91 -9 -35 -12 -74 -8 -107 5
-48 8 -53 30 -53 13 0 41 9 63 20 46 24 80 26 80 5 0 -8 -17 -19 -42 -25 -57
-15 -88 -36 -88 -59 0 -24 69 -84 131 -117 28 -13 56 -38 69 -59 l22 -36 -21
-49 c-28 -64 -27 -86 6 -134 88 -132 150 -194 229 -232 39 -19 76 -34 82 -34
7 0 17 -9 24 -20 12 -19 24 -20 346 -20 l333 0 -26 35 c-36 46 -29 59 32 61
59 3 93 18 93 42 0 36 18 46 91 51 l72 6 33 50 c48 72 96 124 115 125 9 0 19
6 22 14 4 9 23 16 49 18 41 3 43 5 48 39 5 25 20 47 53 78 30 28 47 52 47 66
0 18 9 26 35 35 46 15 50 25 25 57 l-22 28 28 22 c35 28 24 44 -52 73 -84 31
-179 21 -259 -27 -19 -11 -19 -14 -5 -40 8 -15 43 -46 78 -68 l62 -40 -5 -55
c-5 -52 -32 -107 -51 -103 -5 1 -17 29 -26 63 -20 73 -58 141 -95 169 -23 19
-28 20 -43 6 -9 -8 -22 -15 -28 -15 -17 0 -9 82 11 110 9 14 17 31 17 40 0 11
5 9 18 -8 14 -18 22 -21 48 -13 51 14 87 37 130 83 50 52 71 92 74 138 3 61 3
61 -40 54 l-40 -7 0 44 c0 27 8 56 20 74 22 33 26 60 10 70 -18 11 -45 -4 -63
-37 -18 -34 -105 -98 -132 -98 -8 0 -19 9 -25 19 -21 41 -11 69 60 156 39 47
80 105 91 128 11 23 27 55 35 71 13 26 13 32 -7 70 -26 50 -34 56 -79 56 -20
0 -53 9 -74 20 -21 10 -59 22 -85 25 -25 4 -59 16 -75 27 -15 11 -40 23 -54
27 -40 11 -38 30 5 46 87 35 124 58 164 103 65 74 69 112 10 112 -25 0 -38 10
-130 105 -51 53 -81 75 -103 75 -25 0 -65 -41 -74 -76 -4 -16 -15 -45 -26 -64
-10 -19 -18 -51 -18 -70 0 -45 -7 -54 -52 -73 -45 -19 -53 -43 -45 -133 5 -54
11 -67 38 -94 18 -16 36 -30 42 -30 5 0 7 -15 4 -36 -8 -49 4 -76 59 -126 74
-67 114 -111 129 -140 13 -24 13 -29 -1 -42 -8 -9 -29 -16 -45 -16 -33 0 -138
49 -158 74 -19 22 -31 20 -97 -15 -78 -40 -99 -62 -114 -112 -12 -46 -67 -94
-95 -83 -39 15 -42 111 -5 151 10 11 34 44 54 73 34 51 35 55 22 85 -7 18 -25
43 -40 56 -32 30 -33 54 -4 81 21 19 21 20 2 20 -11 0 -30 7 -43 16 -21 15
-23 22 -18 71 7 68 -4 99 -37 107 -14 3 -26 10 -26 14 0 4 23 32 50 62 72 79
77 119 13 120 -13 0 -55 34 -113 90 -102 99 -120 107 -163 62z m530 -1106 c34
-45 43 -65 53 -127 6 -44 18 -82 29 -94 25 -28 33 -65 15 -72 -8 -3 -20 0 -28
6 -17 15 -41 5 -92 -36 -23 -18 -46 -33 -52 -33 -6 0 -24 -11 -40 -25 -20 -17
-51 -29 -93 -35 -35 -6 -79 -14 -96 -17 -31 -5 -33 -4 -33 26 0 17 11 49 25
71 14 22 25 43 25 46 0 24 105 217 136 251 22 23 47 53 57 67 27 38 47 32 94
-28z m-757 -2 c7 -20 23 -45 36 -57 13 -11 24 -29 24 -39 0 -15 -4 -16 -27 -7
-33 12 -83 58 -83 75 0 22 19 64 29 64 5 0 15 -16 21 -36z m395 -108 c26 -11
35 -21 35 -39 0 -43 -19 -49 -106 -35 -42 7 -79 18 -81 23 -6 21 16 38 52 40
20 1 41 7 48 14 14 14 11 14 52 -3z m-305 -35 c5 -11 10 -29 10 -40 0 -11 8
-26 19 -33 10 -7 22 -24 26 -38 4 -14 18 -38 30 -55 44 -60 42 -107 -5 -124
-60 -20 -115 14 -107 67 5 27 1 36 -23 54 -37 27 -41 38 -29 85 11 39 48 103
61 103 4 0 12 -9 18 -19z"/>
<path d="M1926 2116 c-18 -34 -18 -35 3 -62 19 -24 20 -29 6 -44 -8 -9 -15
-25 -15 -34 0 -10 -6 -30 -14 -44 -31 -61 -35 -89 -16 -118 10 -15 16 -33 13
-40 -5 -13 83 -62 93 -51 3 3 -8 18 -25 33 -38 33 -38 48 -3 99 26 37 32 40
67 37 31 -3 42 1 56 20 18 23 19 23 49 6 34 -19 115 -24 125 -8 3 5 -10 27
-30 49 -36 39 -36 39 -70 25 -45 -18 -71 -18 -79 2 -8 21 11 44 35 44 27 0 31
15 10 41 -15 19 -29 24 -63 24 -38 0 -43 3 -41 21 2 17 -5 23 -29 28 -48 10
-52 8 -72 -28z m110 -111 c8 -19 -13 -45 -36 -45 -23 0 -34 28 -19 46 15 19
48 18 55 -1z"/>
<path d="M3875 2086 c-17 -7 -56 -37 -88 -65 -50 -47 -57 -57 -57 -92 0 -33 7
-45 48 -83 26 -25 83 -79 126 -120 45 -43 91 -78 107 -81 16 -4 31 -11 34 -16
4 -5 17 -9 29 -9 18 0 44 25 103 98 112 136 135 175 123 204 -28 66 -39 74
-102 82 -28 4 -60 13 -72 21 -11 8 -46 17 -76 21 -30 4 -66 15 -80 25 -37 26
-61 30 -95 15z"/>
<path d="M6526 1984 c-11 -29 -6 -64 12 -82 54 -54 121 -141 129 -167 8 -24
18 -31 54 -40 31 -8 51 -8 67 -1 23 10 22 10 -15 21 l-38 11 0 76 c0 42 -4 80
-8 85 -5 4 -34 13 -64 18 -57 10 -67 19 -78 68 -4 20 -11 27 -29 27 -13 0 -27
-7 -30 -16z"/>
<path d="M2904 1915 c8 -23 -24 -32 -40 -11 -10 15 -18 16 -53 6 -46 -12 -50
-19 -21 -45 24 -22 26 -51 3 -59 -10 -4 -26 4 -46 24 -16 16 -38 30 -49 30
-25 0 -88 -27 -88 -37 1 -4 17 -18 36 -31 27 -17 44 -21 70 -16 31 6 34 4 48
-30 10 -23 23 -37 40 -42 36 -9 32 -28 -8 -54 l-35 -21 -20 20 c-14 14 -34 21
-61 21 -26 0 -43 5 -46 14 -14 35 -123 -44 -124 -89 0 -12 -5 -26 -11 -32 -7
-7 -14 -49 -18 -95 -6 -81 -7 -83 -33 -86 -20 -2 -35 5 -53 24 -24 25 -25 32
-19 88 4 33 13 67 21 74 7 7 13 23 13 35 0 12 3 32 6 43 10 39 -23 37 -43 -3
-26 -49 -47 -62 -70 -41 -39 34 -60 32 -108 -13 -27 -25 -49 -56 -55 -78 -15
-54 -80 -92 -80 -47 0 18 -27 39 -39 31 -7 -3 -2 -22 11 -49 24 -50 19 -95
-12 -103 -10 -3 -21 -11 -24 -19 -6 -15 9 -28 23 -20 12 8 68 -63 76 -97 4
-15 12 -27 19 -28 6 -1 48 -2 94 -3 65 -2 89 -7 110 -23 49 -36 71 -38 103 -7
21 20 39 27 71 28 37 1 44 -3 56 -26 16 -33 23 -34 47 -8 9 10 29 19 44 18 14
0 35 3 46 6 14 5 28 -1 48 -19 26 -24 27 -32 26 -98 -1 -40 4 -94 11 -122 7
-27 12 -72 11 -100 -5 -138 0 -225 14 -225 6 0 21 -9 33 -20 17 -17 20 -25 12
-40 -15 -29 -13 -31 25 -24 22 4 35 2 35 -4 0 -11 25 -27 88 -57 42 -20 40
-38 -8 -85 -46 -44 -52 -82 -20 -123 11 -14 20 -39 20 -56 0 -22 7 -35 25 -47
14 -9 25 -22 25 -30 0 -7 9 -18 19 -24 12 -6 22 -26 26 -50 l7 -40 49 0 c44 0
51 3 59 25 12 32 39 32 74 0 l27 -25 300 0 299 0 0 34 c0 44 24 70 59 61 80
-19 166 -18 199 4 10 6 9 14 -5 40 -15 27 -16 33 -3 41 18 11 30 4 30 -20 0
-22 19 -30 71 -30 22 0 48 -5 58 -12 16 -10 26 -9 53 4 18 9 63 30 101 48 l67
31 0 68 c0 56 -4 73 -26 102 -23 31 -25 40 -20 104 4 58 11 81 41 130 42 70
42 95 0 107 -94 27 -246 -37 -291 -124 -13 -26 -13 -27 21 -38 34 -11 35 -13
29 -51 -5 -31 -3 -39 9 -39 36 0 36 -69 0 -141 -21 -41 -37 -58 -67 -72 l-39
-19 -68 28 c-60 24 -77 26 -144 21 -46 -3 -77 -2 -81 5 -4 5 16 33 44 61 55
57 78 97 90 154 5 25 16 42 31 50 27 13 70 62 71 80 0 7 14 28 30 46 24 28 30
44 30 80 0 25 5 49 12 53 7 4 47 7 90 7 67 0 83 -4 116 -26 20 -14 64 -30 97
-36 87 -16 89 -13 73 134 l-14 119 -36 9 c-51 12 -77 45 -87 108 -8 46 -15 59
-52 91 -24 21 -49 38 -55 38 -18 0 -61 -53 -73 -90 -14 -43 -25 -57 -73 -92
-33 -25 -45 -28 -120 -28 -59 0 -90 -4 -104 -15 -24 -18 -68 -19 -83 -1 -10
12 -3 16 43 26 31 6 58 15 61 20 3 5 -4 24 -17 41 l-23 31 28 20 c15 11 27 23
27 28 0 5 -25 21 -55 35 -66 33 -145 36 -222 11 -66 -22 -80 -38 -64 -73 16
-35 2 -46 -33 -28 -36 19 -48 10 -87 -67 -28 -56 -52 -78 -83 -78 -24 0 -19
15 24 72 40 54 67 114 56 126 -4 3 -35 8 -70 10 -91 6 -157 -18 -219 -80 -52
-53 -56 -71 -13 -76 34 -4 42 -24 25 -63 l-12 -32 -81 8 c-45 4 -102 6 -127 6
-46 -2 -99 26 -99 53 0 6 -9 29 -20 51 -25 50 -25 111 0 166 11 24 20 53 20
64 0 19 6 20 136 18 132 -3 137 -2 166 22 41 35 67 31 118 -17 54 -50 112 -77
163 -78 36 0 37 1 37 38 0 103 -76 222 -163 257 -37 15 -39 15 -44 -5 -6 -23
-6 -23 -56 -9 -76 21 -138 76 -163 144 -6 17 -19 32 -28 33 -22 5 -71 -50 -86
-96 -7 -17 -20 -36 -29 -42 -10 -5 -21 -22 -24 -38 -4 -17 -14 -31 -25 -34
-12 -3 -21 -18 -25 -38 -8 -38 -31 -36 -35 5 -3 26 17 79 44 115 6 8 16 53 22
99 7 50 20 97 33 118 29 47 20 119 -17 134 -38 14 -57 11 -50 -6z m-9 -125 c7
-24 -1 -40 -20 -40 -17 0 -34 30 -28 48 7 19 41 14 48 -8z m-345 -450 c12 -8
13 -13 3 -30 -19 -29 -16 -32 17 -25 25 5 30 3 30 -12 -1 -24 -31 -59 -59 -68
-15 -4 -21 -3 -17 3 3 5 -1 13 -10 16 -14 5 -15 15 -10 58 10 71 15 78 46 58z
m360 -16 c0 -16 -16 -19 -25 -4 -8 13 4 32 16 25 5 -4 9 -13 9 -21z m900 -796
c-1 -22 -38 -98 -48 -98 -21 0 -27 44 -12 84 7 19 17 26 35 26 14 0 25 -6 25
-12z"/>
<path d="M4553 1899 c-25 -9 -38 -47 -28 -79 4 -12 25 -39 46 -60 43 -42 86
-100 99 -136 6 -15 23 -27 47 -33 51 -14 66 -14 89 4 18 14 18 14 -6 15 -14 0
-36 7 -48 16 -20 14 -21 21 -16 69 11 88 3 102 -61 110 -59 7 -85 29 -85 72 0
27 -9 33 -37 22z"/>
<path d="M2257 1844 c-14 -14 -7 -25 13 -22 12 2 21 8 21 13 0 12 -24 18 -34
9z"/>
<path d="M2081 1811 c-15 -10 -4 -61 15 -68 20 -8 45 17 42 40 -3 22 -38 39
-57 28z"/>
<path d="M8126 1804 c-4 -9 -4 -19 -1 -22 6 -6 35 18 35 29 0 16 -28 10 -34
-7z"/>
<path d="M2547 1773 c-9 -9 12 -33 29 -33 17 0 18 12 2 28 -14 14 -22 15 -31
5z"/>
<path d="M7341 1672 c-30 -30 -51 -64 -59 -93 -12 -42 -11 -49 7 -81 18 -30
19 -40 10 -67 -13 -38 -41 -51 -89 -42 -38 7 -135 54 -145 71 -17 28 -87 -5
-162 -76 -65 -62 -59 -90 36 -179 6 -5 29 -34 52 -63 43 -57 59 -96 59 -148 0
-17 8 -42 18 -55 49 -64 102 -188 102 -236 0 -19 -5 -23 -30 -23 l-31 0 7 -49
6 -48 -45 -22 c-42 -20 -46 -26 -51 -64 -3 -23 -10 -82 -16 -130 -13 -97 -8
-112 52 -143 20 -10 28 -22 28 -41 0 -25 2 -25 42 -19 42 7 98 31 150 64 44
27 62 9 70 -72 12 -119 67 -195 96 -131 13 29 21 31 48 10 24 -18 44 -19 44
-2 0 7 6 22 14 32 13 18 16 18 33 4 10 -8 30 -20 46 -27 15 -6 27 -18 27 -27
0 -13 33 -15 256 -15 l255 0 -6 23 c-4 12 -18 38 -31 58 -13 19 -24 44 -24 55
0 12 -9 47 -20 80 -26 74 -20 104 19 104 16 0 36 -7 45 -15 19 -20 29 -19 73
5 54 29 111 23 149 -15 18 -18 49 -19 164 -4 73 9 95 9 146 -5 32 -10 68 -19
79 -22 12 -3 29 3 44 17 22 20 23 27 17 87 -7 70 -16 91 -52 135 -13 16 -24
33 -24 38 0 5 19 18 42 30 24 12 60 36 81 53 38 30 39 30 53 11 8 -11 14 -42
14 -75 0 -66 23 -140 51 -166 19 -18 21 -17 43 11 15 19 28 26 39 22 21 -8 35
-59 17 -65 -25 -9 -90 -85 -90 -107 0 -12 9 -34 20 -47 10 -14 22 -44 26 -67
4 -26 14 -46 25 -52 11 -5 19 -15 19 -22 0 -7 12 -24 25 -39 21 -25 31 -28 87
-28 55 0 65 3 85 27 13 14 23 29 23 34 0 4 20 19 44 33 55 32 121 106 137 154
10 31 9 37 -7 49 -10 7 -42 13 -71 13 -32 0 -63 6 -78 16 -22 14 -26 14 -49
-1 -24 -16 -28 -16 -53 0 -16 10 -44 34 -62 54 -34 35 -35 38 -32 106 1 39 6
74 11 79 13 13 39 -1 49 -27 8 -20 90 -98 165 -155 42 -32 127 -56 142 -40 16
18 2 121 -25 182 -11 27 -21 65 -21 86 0 23 -8 48 -22 66 -15 19 -23 42 -23
72 0 35 -5 48 -22 60 -13 8 -23 19 -23 24 0 6 -11 23 -23 38 -17 20 -26 46
-30 90 -4 34 -14 71 -22 83 -8 12 -15 34 -15 49 0 35 -14 43 -52 27 -25 -10
-31 -10 -39 2 -20 31 -5 52 45 65 34 9 62 26 92 55 24 24 44 47 44 51 0 5 -13
11 -30 14 -31 7 -67 35 -86 70 -10 16 -13 17 -28 5 -9 -7 -25 -33 -36 -57 -10
-24 -22 -44 -25 -44 -3 0 -19 16 -36 35 -17 19 -38 36 -47 39 -27 9 -143 27
-187 29 -45 2 -65 28 -65 84 0 37 -38 73 -77 73 -13 0 -34 11 -47 25 -32 35
-78 34 -106 -2 -18 -23 -20 -35 -15 -74 l7 -47 -29 6 c-15 3 -40 14 -56 24
-15 11 -35 18 -44 16 -19 -4 -93 -106 -93 -129 0 -26 -71 -109 -99 -115 -44
-11 -71 -43 -71 -85 0 -25 8 -46 23 -63 21 -24 24 -24 90 -15 38 6 83 19 100
29 47 29 102 26 132 -6 14 -15 25 -30 25 -35 0 -4 26 -22 58 -40 99 -57 210
-192 187 -229 -3 -5 -23 -14 -44 -20 -52 -14 -115 -58 -143 -100 -29 -42 -62
-50 -90 -20 -17 18 -19 30 -14 70 6 43 4 49 -14 55 -35 11 -127 -6 -146 -26
-23 -26 -59 -24 -84 4 -12 12 -28 30 -37 39 -8 9 -46 26 -84 37 -70 22 -99 47
-99 87 0 34 -55 100 -102 123 -71 34 -99 29 -163 -29 -30 -27 -62 -50 -70 -50
-7 0 -20 -8 -27 -17 -7 -10 -29 -29 -48 -43 -46 -32 -148 -41 -170 -15 -33 40
-1 135 69 203 36 35 54 66 115 195 29 59 28 94 0 83 -9 -3 -19 -6 -23 -6 -3 0
-15 -15 -25 -34 -19 -36 -114 -93 -140 -83 -35 13 -31 111 6 143 11 11 36 43
55 73 31 49 33 56 22 83 -6 16 -29 43 -49 61 -21 18 -45 49 -53 70 -23 54 -57
51 -116 -11z m-4 -624 c18 -13 36 -33 39 -46 14 -51 -41 -66 -130 -36 -44 15
-47 18 -44 47 5 56 76 74 135 35z m903 -418 c0 -5 -2 -10 -4 -10 -3 0 -8 5
-11 10 -3 6 -1 10 4 10 6 0 11 -4 11 -10z"/>
<path d="M7972 1647 c-34 -35 -53 -99 -33 -111 15 -10 57 41 72 87 18 55 1 65
-39 24z"/>
<path d="M1929 1653 c-39 -46 -47 -70 -42 -114 5 -36 30 -79 46 -79 9 0 -2 71
-13 85 -11 13 -9 20 10 40 14 15 35 25 52 25 22 0 32 -8 50 -42 l23 -43 5 50
c9 79 2 90 -62 93 -42 2 -57 -1 -69 -15z"/>
<path d="M3679 1539 c-58 -58 -82 -118 -83 -206 0 -39 3 -75 7 -79 12 -12 84
15 129 49 57 44 100 115 106 177 l4 49 -43 -2 c-41 -2 -44 0 -47 26 -5 38 -25
34 -73 -14z"/>
<path d="M1940 1386 c0 -20 5 -26 21 -26 15 0 20 5 17 22 -5 34 -38 37 -38 4z"/>
<path d="M10358 1400 c-15 -5 -45 -23 -67 -41 -33 -28 -41 -42 -46 -81 -4 -27
-11 -50 -16 -54 -19 -11 -7 -21 60 -52 93 -43 136 -43 179 2 44 47 43 81 -2
100 -39 16 -56 42 -56 84 0 37 -17 51 -52 42z"/>
<path d="M9803 1310 c-18 -11 -33 -25 -33 -31 0 -23 -82 -109 -104 -109 -29 0
-46 -18 -46 -49 -1 -15 -7 -37 -15 -51 -19 -34 -19 -90 1 -119 15 -21 22 -23
73 -17 163 19 171 19 171 3 0 -8 -7 -20 -16 -28 -24 -20 -47 -71 -49 -111 -2
-34 1 -38 44 -61 25 -14 60 -28 78 -32 43 -9 103 4 110 24 3 9 15 26 25 38 24
26 20 56 -7 61 -32 6 -55 33 -55 64 0 24 4 28 29 28 33 0 81 40 81 67 -1 10
-5 49 -10 87 -8 62 -12 73 -53 115 -24 25 -53 59 -65 74 -22 30 -85 67 -112
67 -8 0 -30 -9 -47 -20z"/>
<path d="M2000 966 c0 -8 5 -18 10 -21 6 -3 10 -19 10 -36 0 -23 4 -29 21 -29
18 0 20 5 17 48 -3 43 -5 47 -30 50 -20 2 -28 -1 -28 -12z"/>
<path d="M1927 953 c-11 -10 -8 -43 3 -43 6 0 10 11 10 25 0 26 -2 29 -13 18z"/>
<path d="M2115 915 c0 -22 5 -35 13 -35 9 0 12 11 10 32 -4 43 -23 46 -23 3z"/>
<path d="M9647 646 c-24 -25 -52 -62 -62 -83 -21 -43 -34 -196 -17 -206 17
-11 99 23 141 60 46 39 81 98 92 157 10 55 4 67 -29 55 -35 -13 -49 -6 -57 30
-4 17 -10 31 -15 31 -5 0 -28 -20 -53 -44z"/>
<path d="M4587 642 c-68 -74 -66 -265 3 -327 18 -16 19 -15 35 9 19 29 46 34
65 11 21 -25 28 -18 40 38 17 84 -10 182 -70 250 -36 41 -50 45 -73 19z"/>
<path d="M6620 383 c-19 -2 -55 -10 -80 -18 -25 -7 -58 -16 -74 -20 -26 -5
-28 -9 -23 -41 13 -81 131 -202 186 -190 84 18 88 18 127 -3 53 -29 85 -27
116 7 22 23 27 38 30 100 l4 72 -40 7 c-25 4 -58 22 -92 50 -55 44 -62 46
-154 36z"/>
<path d="M9531 246 c-20 -24 -91 -198 -91 -223 0 -23 1 -23 126 -23 115 0 125
1 120 18 -3 9 -8 31 -12 47 -13 57 -43 113 -79 154 -41 45 -47 48 -64 27z"/>
<path d="M2570 198 c-53 -10 -110 -40 -110 -58 0 -22 68 -84 121 -111 47 -23
71 -29 121 -29 38 1 70 6 81 15 18 13 18 14 0 45 l-18 32 29 23 29 23 -24 15
c-68 44 -145 59 -229 45z"/>
<path d="M2382 73 c-11 -16 -23 -38 -26 -50 -7 -22 -6 -23 70 -23 71 0 76 1
63 18 -25 33 -73 82 -80 82 -4 0 -16 -12 -27 -27z"/>
</g>
</svg>
